<mxfile host="app.diagrams.net" modified="2021-11-07T15:05:02.513Z" agent="5.0 (X11; Linux x86_64) AppleWebKit/537.36 (KHTML, like Gecko) Chrome/93.0.4577.63 Safari/537.36" etag="IyDCq4_yfl0J8YoFaf0h" version="15.7.0" type="github" pages="7">
  <diagram id="-NnYCkEPIYduWp0-6euy" name="Page-1">
    <mxGraphModel dx="1422" dy="740" grid="1" gridSize="10" guides="1" tooltips="1" connect="1" arrows="1" fold="1" page="1" pageScale="1" pageWidth="827" pageHeight="1169" math="0" shadow="0">
      <root>
        <mxCell id="0" />
        <mxCell id="1" parent="0" />
        <mxCell id="H6dnoPk9I9H39hs6X6ky-9" style="edgeStyle=orthogonalEdgeStyle;rounded=0;orthogonalLoop=1;jettySize=auto;html=1;exitX=1;exitY=0.5;exitDx=0;exitDy=0;" parent="1" source="H6dnoPk9I9H39hs6X6ky-1" target="H6dnoPk9I9H39hs6X6ky-8" edge="1">
          <mxGeometry relative="1" as="geometry" />
        </mxCell>
        <mxCell id="H6dnoPk9I9H39hs6X6ky-1" value="Worker ASR Zalo" style="rounded=0;whiteSpace=wrap;html=1;" parent="1" vertex="1">
          <mxGeometry x="80" y="60" width="120" height="60" as="geometry" />
        </mxCell>
        <mxCell id="H6dnoPk9I9H39hs6X6ky-10" style="edgeStyle=orthogonalEdgeStyle;rounded=0;orthogonalLoop=1;jettySize=auto;html=1;exitX=1;exitY=0.5;exitDx=0;exitDy=0;" parent="1" source="H6dnoPk9I9H39hs6X6ky-3" edge="1">
          <mxGeometry relative="1" as="geometry">
            <mxPoint x="270" y="390" as="targetPoint" />
          </mxGeometry>
        </mxCell>
        <mxCell id="H6dnoPk9I9H39hs6X6ky-3" value="Worker ASR Zalo" style="rounded=0;whiteSpace=wrap;html=1;" parent="1" vertex="1">
          <mxGeometry x="80" y="160" width="120" height="60" as="geometry" />
        </mxCell>
        <mxCell id="H6dnoPk9I9H39hs6X6ky-13" style="edgeStyle=orthogonalEdgeStyle;rounded=0;orthogonalLoop=1;jettySize=auto;html=1;exitX=0;exitY=0.5;exitDx=0;exitDy=0;" parent="1" source="H6dnoPk9I9H39hs6X6ky-4" target="H6dnoPk9I9H39hs6X6ky-12" edge="1">
          <mxGeometry relative="1" as="geometry" />
        </mxCell>
        <mxCell id="H6dnoPk9I9H39hs6X6ky-4" value="Worker ASR KiKi" style="rounded=0;whiteSpace=wrap;html=1;" parent="1" vertex="1">
          <mxGeometry x="480" y="60" width="120" height="60" as="geometry" />
        </mxCell>
        <mxCell id="H6dnoPk9I9H39hs6X6ky-15" style="edgeStyle=orthogonalEdgeStyle;rounded=0;orthogonalLoop=1;jettySize=auto;html=1;exitX=0;exitY=0.5;exitDx=0;exitDy=0;entryX=0.5;entryY=0;entryDx=0;entryDy=0;" parent="1" source="H6dnoPk9I9H39hs6X6ky-6" target="H6dnoPk9I9H39hs6X6ky-12" edge="1">
          <mxGeometry relative="1" as="geometry" />
        </mxCell>
        <mxCell id="H6dnoPk9I9H39hs6X6ky-6" value="Worker ASR KiKi" style="rounded=0;whiteSpace=wrap;html=1;" parent="1" vertex="1">
          <mxGeometry x="480" y="170" width="120" height="60" as="geometry" />
        </mxCell>
        <mxCell id="H6dnoPk9I9H39hs6X6ky-11" style="edgeStyle=orthogonalEdgeStyle;rounded=0;orthogonalLoop=1;jettySize=auto;html=1;exitX=1;exitY=0.5;exitDx=0;exitDy=0;" parent="1" source="H6dnoPk9I9H39hs6X6ky-7" target="H6dnoPk9I9H39hs6X6ky-8" edge="1">
          <mxGeometry relative="1" as="geometry" />
        </mxCell>
        <mxCell id="H6dnoPk9I9H39hs6X6ky-7" value="Worker ASR Zalo" style="rounded=0;whiteSpace=wrap;html=1;" parent="1" vertex="1">
          <mxGeometry x="80" y="260" width="120" height="60" as="geometry" />
        </mxCell>
        <mxCell id="H6dnoPk9I9H39hs6X6ky-17" style="edgeStyle=orthogonalEdgeStyle;rounded=0;orthogonalLoop=1;jettySize=auto;html=1;exitX=0.5;exitY=1;exitDx=0;exitDy=0;entryX=0.5;entryY=0;entryDx=0;entryDy=0;" parent="1" source="H6dnoPk9I9H39hs6X6ky-8" target="H6dnoPk9I9H39hs6X6ky-16" edge="1">
          <mxGeometry relative="1" as="geometry" />
        </mxCell>
        <mxCell id="H6dnoPk9I9H39hs6X6ky-20" style="edgeStyle=orthogonalEdgeStyle;rounded=0;orthogonalLoop=1;jettySize=auto;html=1;exitX=0.5;exitY=1;exitDx=0;exitDy=0;entryX=0.5;entryY=0;entryDx=0;entryDy=0;" parent="1" source="H6dnoPk9I9H39hs6X6ky-8" target="H6dnoPk9I9H39hs6X6ky-19" edge="1">
          <mxGeometry relative="1" as="geometry" />
        </mxCell>
        <mxCell id="H6dnoPk9I9H39hs6X6ky-8" value="rabitmq queue zalo" style="rounded=1;whiteSpace=wrap;html=1;" parent="1" vertex="1">
          <mxGeometry x="210" y="390" width="120" height="60" as="geometry" />
        </mxCell>
        <mxCell id="H6dnoPk9I9H39hs6X6ky-25" style="edgeStyle=orthogonalEdgeStyle;rounded=0;orthogonalLoop=1;jettySize=auto;html=1;exitX=0.5;exitY=1;exitDx=0;exitDy=0;entryX=0.5;entryY=0;entryDx=0;entryDy=0;" parent="1" source="H6dnoPk9I9H39hs6X6ky-12" target="H6dnoPk9I9H39hs6X6ky-24" edge="1">
          <mxGeometry relative="1" as="geometry" />
        </mxCell>
        <mxCell id="H6dnoPk9I9H39hs6X6ky-12" value="rabitmq queue kiki" style="rounded=1;whiteSpace=wrap;html=1;" parent="1" vertex="1">
          <mxGeometry x="400" y="390" width="120" height="60" as="geometry" />
        </mxCell>
        <mxCell id="H6dnoPk9I9H39hs6X6ky-22" style="edgeStyle=orthogonalEdgeStyle;rounded=0;orthogonalLoop=1;jettySize=auto;html=1;exitX=0.5;exitY=1;exitDx=0;exitDy=0;" parent="1" source="H6dnoPk9I9H39hs6X6ky-16" target="H6dnoPk9I9H39hs6X6ky-21" edge="1">
          <mxGeometry relative="1" as="geometry" />
        </mxCell>
        <mxCell id="H6dnoPk9I9H39hs6X6ky-16" value="Worker central log" style="rounded=0;whiteSpace=wrap;html=1;" parent="1" vertex="1">
          <mxGeometry x="110" y="525" width="120" height="60" as="geometry" />
        </mxCell>
        <mxCell id="H6dnoPk9I9H39hs6X6ky-23" style="edgeStyle=orthogonalEdgeStyle;rounded=0;orthogonalLoop=1;jettySize=auto;html=1;exitX=0.5;exitY=1;exitDx=0;exitDy=0;entryX=0.5;entryY=0;entryDx=0;entryDy=0;" parent="1" source="H6dnoPk9I9H39hs6X6ky-19" target="H6dnoPk9I9H39hs6X6ky-21" edge="1">
          <mxGeometry relative="1" as="geometry" />
        </mxCell>
        <mxCell id="H6dnoPk9I9H39hs6X6ky-19" value="Worker central log" style="rounded=0;whiteSpace=wrap;html=1;" parent="1" vertex="1">
          <mxGeometry x="270" y="525" width="120" height="60" as="geometry" />
        </mxCell>
        <mxCell id="H6dnoPk9I9H39hs6X6ky-21" value="ZTech Central log" style="shape=process;whiteSpace=wrap;html=1;backgroundOutline=1;" parent="1" vertex="1">
          <mxGeometry x="290" y="650" width="170" height="60" as="geometry" />
        </mxCell>
        <mxCell id="H6dnoPk9I9H39hs6X6ky-26" style="edgeStyle=orthogonalEdgeStyle;rounded=0;orthogonalLoop=1;jettySize=auto;html=1;exitX=0.5;exitY=1;exitDx=0;exitDy=0;entryX=0.5;entryY=0;entryDx=0;entryDy=0;" parent="1" source="H6dnoPk9I9H39hs6X6ky-24" target="H6dnoPk9I9H39hs6X6ky-21" edge="1">
          <mxGeometry relative="1" as="geometry" />
        </mxCell>
        <mxCell id="H6dnoPk9I9H39hs6X6ky-24" value="Worker central log" style="rounded=0;whiteSpace=wrap;html=1;" parent="1" vertex="1">
          <mxGeometry x="510" y="525" width="120" height="60" as="geometry" />
        </mxCell>
        <mxCell id="H6dnoPk9I9H39hs6X6ky-27" value="..." style="text;html=1;align=center;verticalAlign=middle;resizable=0;points=[];autosize=1;strokeColor=none;fontStyle=1;fontSize=22;" parent="1" vertex="1">
          <mxGeometry x="600" y="405" width="30" height="30" as="geometry" />
        </mxCell>
      </root>
    </mxGraphModel>
  </diagram>
  <diagram id="u9KwJ0pXoAzL_49wM-5C" name="Page-2">
    <mxGraphModel dx="2249" dy="739" grid="1" gridSize="10" guides="1" tooltips="1" connect="1" arrows="1" fold="1" page="1" pageScale="1" pageWidth="827" pageHeight="1169" math="0" shadow="0">
      <root>
        <mxCell id="1ikd2FIrZodbas4bm4kL-0" />
        <mxCell id="1ikd2FIrZodbas4bm4kL-1" parent="1ikd2FIrZodbas4bm4kL-0" />
        <mxCell id="1ikd2FIrZodbas4bm4kL-18" value="" style="rounded=1;absoluteArcSize=1;html=1;arcSize=10;fontSize=40;" vertex="1" parent="1ikd2FIrZodbas4bm4kL-1">
          <mxGeometry x="180" y="180" width="170" height="60" as="geometry" />
        </mxCell>
        <mxCell id="1ikd2FIrZodbas4bm4kL-19" value="" style="html=1;shape=mxgraph.er.anchor;whiteSpace=wrap;" vertex="1" parent="1ikd2FIrZodbas4bm4kL-18">
          <mxGeometry width="85" height="60" as="geometry" />
        </mxCell>
        <mxCell id="1ikd2FIrZodbas4bm4kL-20" value="" style="rounded=1;absoluteArcSize=1;html=1;arcSize=10;whiteSpace=wrap;points=[];strokeColor=#6c8ebf;fillColor=#dae8fc;" vertex="1" parent="1ikd2FIrZodbas4bm4kL-18">
          <mxGeometry x="88.39999999999999" y="3" width="76.5" height="54" as="geometry" />
        </mxCell>
        <mxCell id="1ikd2FIrZodbas4bm4kL-21" value="1" style="rounded=1;absoluteArcSize=1;html=1;arcSize=10;whiteSpace=wrap;points=[];strokeColor=inherit;fillColor=inherit;fontSize=30;" vertex="1" parent="1ikd2FIrZodbas4bm4kL-18">
          <mxGeometry x="4.25" y="3" width="76.5" height="54" as="geometry" />
        </mxCell>
        <mxCell id="1ikd2FIrZodbas4bm4kL-28" value="" style="rounded=1;absoluteArcSize=1;html=1;arcSize=10;fontSize=40;" vertex="1" parent="1ikd2FIrZodbas4bm4kL-1">
          <mxGeometry x="180" y="280" width="170" height="60" as="geometry" />
        </mxCell>
        <mxCell id="1ikd2FIrZodbas4bm4kL-29" value="" style="html=1;shape=mxgraph.er.anchor;whiteSpace=wrap;" vertex="1" parent="1ikd2FIrZodbas4bm4kL-28">
          <mxGeometry width="85" height="60" as="geometry" />
        </mxCell>
        <mxCell id="1ikd2FIrZodbas4bm4kL-30" value="" style="rounded=1;absoluteArcSize=1;html=1;arcSize=10;whiteSpace=wrap;points=[];strokeColor=#6c8ebf;fillColor=#dae8fc;" vertex="1" parent="1ikd2FIrZodbas4bm4kL-28">
          <mxGeometry x="88.39999999999999" y="3" width="76.5" height="54" as="geometry" />
        </mxCell>
        <mxCell id="1ikd2FIrZodbas4bm4kL-31" value="0" style="rounded=1;absoluteArcSize=1;html=1;arcSize=10;whiteSpace=wrap;points=[];strokeColor=inherit;fillColor=inherit;fontSize=30;" vertex="1" parent="1ikd2FIrZodbas4bm4kL-28">
          <mxGeometry x="4.25" y="3" width="76.5" height="54" as="geometry" />
        </mxCell>
        <mxCell id="1ikd2FIrZodbas4bm4kL-32" value="" style="rounded=1;absoluteArcSize=1;html=1;arcSize=10;fontSize=40;" vertex="1" parent="1ikd2FIrZodbas4bm4kL-1">
          <mxGeometry x="180" y="380" width="170" height="60" as="geometry" />
        </mxCell>
        <mxCell id="1ikd2FIrZodbas4bm4kL-33" value="" style="html=1;shape=mxgraph.er.anchor;whiteSpace=wrap;" vertex="1" parent="1ikd2FIrZodbas4bm4kL-32">
          <mxGeometry width="85" height="60" as="geometry" />
        </mxCell>
        <mxCell id="1ikd2FIrZodbas4bm4kL-34" value="" style="rounded=1;absoluteArcSize=1;html=1;arcSize=10;whiteSpace=wrap;points=[];strokeColor=#6c8ebf;fillColor=#dae8fc;" vertex="1" parent="1ikd2FIrZodbas4bm4kL-32">
          <mxGeometry x="88.39999999999999" y="3" width="76.5" height="54" as="geometry" />
        </mxCell>
        <mxCell id="1ikd2FIrZodbas4bm4kL-35" value="0" style="rounded=1;absoluteArcSize=1;html=1;arcSize=10;whiteSpace=wrap;points=[];strokeColor=inherit;fillColor=inherit;fontSize=30;" vertex="1" parent="1ikd2FIrZodbas4bm4kL-32">
          <mxGeometry x="4.25" y="3" width="76.5" height="54" as="geometry" />
        </mxCell>
        <mxCell id="1ikd2FIrZodbas4bm4kL-36" value="" style="rounded=1;absoluteArcSize=1;html=1;arcSize=10;fontSize=40;" vertex="1" parent="1ikd2FIrZodbas4bm4kL-1">
          <mxGeometry x="180" y="480" width="170" height="60" as="geometry" />
        </mxCell>
        <mxCell id="1ikd2FIrZodbas4bm4kL-37" value="" style="html=1;shape=mxgraph.er.anchor;whiteSpace=wrap;" vertex="1" parent="1ikd2FIrZodbas4bm4kL-36">
          <mxGeometry width="85" height="60" as="geometry" />
        </mxCell>
        <mxCell id="1ikd2FIrZodbas4bm4kL-38" value="" style="rounded=1;absoluteArcSize=1;html=1;arcSize=10;whiteSpace=wrap;points=[];strokeColor=#6c8ebf;fillColor=#dae8fc;" vertex="1" parent="1ikd2FIrZodbas4bm4kL-36">
          <mxGeometry x="88.39999999999999" y="3" width="76.5" height="54" as="geometry" />
        </mxCell>
        <mxCell id="1ikd2FIrZodbas4bm4kL-39" value="0" style="rounded=1;absoluteArcSize=1;html=1;arcSize=10;whiteSpace=wrap;points=[];strokeColor=inherit;fillColor=inherit;fontSize=30;" vertex="1" parent="1ikd2FIrZodbas4bm4kL-36">
          <mxGeometry x="4.25" y="3" width="76.5" height="54" as="geometry" />
        </mxCell>
        <mxCell id="1ikd2FIrZodbas4bm4kL-40" value="" style="rounded=1;absoluteArcSize=1;html=1;arcSize=10;fontSize=40;" vertex="1" parent="1ikd2FIrZodbas4bm4kL-1">
          <mxGeometry x="420" y="180" width="170" height="60" as="geometry" />
        </mxCell>
        <mxCell id="1ikd2FIrZodbas4bm4kL-41" value="" style="html=1;shape=mxgraph.er.anchor;whiteSpace=wrap;" vertex="1" parent="1ikd2FIrZodbas4bm4kL-40">
          <mxGeometry width="85" height="60" as="geometry" />
        </mxCell>
        <mxCell id="1ikd2FIrZodbas4bm4kL-42" value="" style="rounded=1;absoluteArcSize=1;html=1;arcSize=10;whiteSpace=wrap;points=[];strokeColor=#6c8ebf;fillColor=#dae8fc;" vertex="1" parent="1ikd2FIrZodbas4bm4kL-40">
          <mxGeometry x="88.39999999999999" y="3" width="76.5" height="54" as="geometry" />
        </mxCell>
        <mxCell id="1ikd2FIrZodbas4bm4kL-43" value="2" style="rounded=1;absoluteArcSize=1;html=1;arcSize=10;whiteSpace=wrap;points=[];strokeColor=inherit;fillColor=inherit;fontSize=30;" vertex="1" parent="1ikd2FIrZodbas4bm4kL-40">
          <mxGeometry x="4.25" y="3" width="76.5" height="54" as="geometry" />
        </mxCell>
        <mxCell id="1ikd2FIrZodbas4bm4kL-44" value="" style="rounded=1;absoluteArcSize=1;html=1;arcSize=10;fontSize=40;" vertex="1" parent="1ikd2FIrZodbas4bm4kL-1">
          <mxGeometry x="420" y="280" width="170" height="60" as="geometry" />
        </mxCell>
        <mxCell id="1ikd2FIrZodbas4bm4kL-45" value="" style="html=1;shape=mxgraph.er.anchor;whiteSpace=wrap;" vertex="1" parent="1ikd2FIrZodbas4bm4kL-44">
          <mxGeometry width="85" height="60" as="geometry" />
        </mxCell>
        <mxCell id="1ikd2FIrZodbas4bm4kL-46" value="" style="rounded=1;absoluteArcSize=1;html=1;arcSize=10;whiteSpace=wrap;points=[];strokeColor=#6c8ebf;fillColor=#dae8fc;" vertex="1" parent="1ikd2FIrZodbas4bm4kL-44">
          <mxGeometry x="88.39999999999999" y="3" width="76.5" height="54" as="geometry" />
        </mxCell>
        <mxCell id="1ikd2FIrZodbas4bm4kL-47" value="2" style="rounded=1;absoluteArcSize=1;html=1;arcSize=10;whiteSpace=wrap;points=[];strokeColor=inherit;fillColor=inherit;fontSize=30;" vertex="1" parent="1ikd2FIrZodbas4bm4kL-44">
          <mxGeometry x="4.25" y="3" width="76.5" height="54" as="geometry" />
        </mxCell>
        <mxCell id="1ikd2FIrZodbas4bm4kL-48" value="" style="rounded=1;absoluteArcSize=1;html=1;arcSize=10;fontSize=40;" vertex="1" parent="1ikd2FIrZodbas4bm4kL-1">
          <mxGeometry x="420" y="380" width="170" height="60" as="geometry" />
        </mxCell>
        <mxCell id="1ikd2FIrZodbas4bm4kL-49" value="" style="html=1;shape=mxgraph.er.anchor;whiteSpace=wrap;" vertex="1" parent="1ikd2FIrZodbas4bm4kL-48">
          <mxGeometry width="85" height="60" as="geometry" />
        </mxCell>
        <mxCell id="1ikd2FIrZodbas4bm4kL-50" value="" style="rounded=1;absoluteArcSize=1;html=1;arcSize=10;whiteSpace=wrap;points=[];strokeColor=#6c8ebf;fillColor=#dae8fc;" vertex="1" parent="1ikd2FIrZodbas4bm4kL-48">
          <mxGeometry x="88.39999999999999" y="3" width="76.5" height="54" as="geometry" />
        </mxCell>
        <mxCell id="1ikd2FIrZodbas4bm4kL-51" value="1" style="rounded=1;absoluteArcSize=1;html=1;arcSize=10;whiteSpace=wrap;points=[];strokeColor=inherit;fillColor=inherit;fontSize=30;" vertex="1" parent="1ikd2FIrZodbas4bm4kL-48">
          <mxGeometry x="4.25" y="3" width="76.5" height="54" as="geometry" />
        </mxCell>
        <mxCell id="1ikd2FIrZodbas4bm4kL-52" value="" style="rounded=1;absoluteArcSize=1;html=1;arcSize=10;fontSize=40;" vertex="1" parent="1ikd2FIrZodbas4bm4kL-1">
          <mxGeometry x="650" y="180" width="170" height="60" as="geometry" />
        </mxCell>
        <mxCell id="1ikd2FIrZodbas4bm4kL-53" value="" style="html=1;shape=mxgraph.er.anchor;whiteSpace=wrap;" vertex="1" parent="1ikd2FIrZodbas4bm4kL-52">
          <mxGeometry width="85" height="60" as="geometry" />
        </mxCell>
        <mxCell id="1ikd2FIrZodbas4bm4kL-54" value="" style="rounded=1;absoluteArcSize=1;html=1;arcSize=10;whiteSpace=wrap;points=[];strokeColor=#6c8ebf;fillColor=#dae8fc;" vertex="1" parent="1ikd2FIrZodbas4bm4kL-52">
          <mxGeometry x="88.39999999999999" y="3" width="76.5" height="54" as="geometry" />
        </mxCell>
        <mxCell id="1ikd2FIrZodbas4bm4kL-55" value="3" style="rounded=1;absoluteArcSize=1;html=1;arcSize=10;whiteSpace=wrap;points=[];strokeColor=inherit;fillColor=inherit;fontSize=30;" vertex="1" parent="1ikd2FIrZodbas4bm4kL-52">
          <mxGeometry x="4.25" y="3" width="76.5" height="54" as="geometry" />
        </mxCell>
        <mxCell id="1ikd2FIrZodbas4bm4kL-56" value="" style="rounded=1;absoluteArcSize=1;html=1;arcSize=10;fontSize=40;" vertex="1" parent="1ikd2FIrZodbas4bm4kL-1">
          <mxGeometry x="-60" y="180" width="170" height="60" as="geometry" />
        </mxCell>
        <mxCell id="1ikd2FIrZodbas4bm4kL-57" value="" style="html=1;shape=mxgraph.er.anchor;whiteSpace=wrap;" vertex="1" parent="1ikd2FIrZodbas4bm4kL-56">
          <mxGeometry width="85" height="60" as="geometry" />
        </mxCell>
        <mxCell id="1ikd2FIrZodbas4bm4kL-58" value="" style="rounded=1;absoluteArcSize=1;html=1;arcSize=10;whiteSpace=wrap;points=[];strokeColor=#6c8ebf;fillColor=#dae8fc;" vertex="1" parent="1ikd2FIrZodbas4bm4kL-56">
          <mxGeometry x="88.39999999999999" y="3" width="76.5" height="54" as="geometry" />
        </mxCell>
        <mxCell id="1ikd2FIrZodbas4bm4kL-59" value="0" style="rounded=1;absoluteArcSize=1;html=1;arcSize=10;whiteSpace=wrap;points=[];strokeColor=inherit;fillColor=inherit;fontSize=30;" vertex="1" parent="1ikd2FIrZodbas4bm4kL-56">
          <mxGeometry x="4.25" y="3" width="76.5" height="54" as="geometry" />
        </mxCell>
        <mxCell id="1ikd2FIrZodbas4bm4kL-60" value="" style="rounded=1;absoluteArcSize=1;html=1;arcSize=10;fontSize=40;" vertex="1" parent="1ikd2FIrZodbas4bm4kL-1">
          <mxGeometry x="-60" y="280" width="170" height="60" as="geometry" />
        </mxCell>
        <mxCell id="1ikd2FIrZodbas4bm4kL-61" value="" style="html=1;shape=mxgraph.er.anchor;whiteSpace=wrap;" vertex="1" parent="1ikd2FIrZodbas4bm4kL-60">
          <mxGeometry width="85" height="60" as="geometry" />
        </mxCell>
        <mxCell id="1ikd2FIrZodbas4bm4kL-62" value="" style="rounded=1;absoluteArcSize=1;html=1;arcSize=10;whiteSpace=wrap;points=[];strokeColor=#6c8ebf;fillColor=#dae8fc;" vertex="1" parent="1ikd2FIrZodbas4bm4kL-60">
          <mxGeometry x="88.39999999999999" y="3" width="76.5" height="54" as="geometry" />
        </mxCell>
        <mxCell id="1ikd2FIrZodbas4bm4kL-63" value="1" style="rounded=1;absoluteArcSize=1;html=1;arcSize=10;whiteSpace=wrap;points=[];strokeColor=inherit;fillColor=inherit;fontSize=30;" vertex="1" parent="1ikd2FIrZodbas4bm4kL-60">
          <mxGeometry x="4.25" y="3" width="76.5" height="54" as="geometry" />
        </mxCell>
        <mxCell id="1ikd2FIrZodbas4bm4kL-64" value="" style="rounded=1;absoluteArcSize=1;html=1;arcSize=10;fontSize=40;" vertex="1" parent="1ikd2FIrZodbas4bm4kL-1">
          <mxGeometry x="-60" y="380" width="170" height="60" as="geometry" />
        </mxCell>
        <mxCell id="1ikd2FIrZodbas4bm4kL-65" value="" style="html=1;shape=mxgraph.er.anchor;whiteSpace=wrap;" vertex="1" parent="1ikd2FIrZodbas4bm4kL-64">
          <mxGeometry width="85" height="60" as="geometry" />
        </mxCell>
        <mxCell id="1ikd2FIrZodbas4bm4kL-66" value="" style="rounded=1;absoluteArcSize=1;html=1;arcSize=10;whiteSpace=wrap;points=[];strokeColor=#6c8ebf;fillColor=#dae8fc;" vertex="1" parent="1ikd2FIrZodbas4bm4kL-64">
          <mxGeometry x="88.39999999999999" y="3" width="76.5" height="54" as="geometry" />
        </mxCell>
        <mxCell id="1ikd2FIrZodbas4bm4kL-67" value="2" style="rounded=1;absoluteArcSize=1;html=1;arcSize=10;whiteSpace=wrap;points=[];strokeColor=inherit;fillColor=inherit;fontSize=30;" vertex="1" parent="1ikd2FIrZodbas4bm4kL-64">
          <mxGeometry x="4.25" y="3" width="76.5" height="54" as="geometry" />
        </mxCell>
        <mxCell id="1ikd2FIrZodbas4bm4kL-68" value="" style="rounded=1;absoluteArcSize=1;html=1;arcSize=10;fontSize=40;" vertex="1" parent="1ikd2FIrZodbas4bm4kL-1">
          <mxGeometry x="-60" y="480" width="170" height="60" as="geometry" />
        </mxCell>
        <mxCell id="1ikd2FIrZodbas4bm4kL-69" value="" style="html=1;shape=mxgraph.er.anchor;whiteSpace=wrap;" vertex="1" parent="1ikd2FIrZodbas4bm4kL-68">
          <mxGeometry width="85" height="60" as="geometry" />
        </mxCell>
        <mxCell id="1ikd2FIrZodbas4bm4kL-70" value="" style="rounded=1;absoluteArcSize=1;html=1;arcSize=10;whiteSpace=wrap;points=[];strokeColor=#6c8ebf;fillColor=#dae8fc;" vertex="1" parent="1ikd2FIrZodbas4bm4kL-68">
          <mxGeometry x="88.39999999999999" y="3" width="76.5" height="54" as="geometry" />
        </mxCell>
        <mxCell id="1ikd2FIrZodbas4bm4kL-71" value="3" style="rounded=1;absoluteArcSize=1;html=1;arcSize=10;whiteSpace=wrap;points=[];strokeColor=inherit;fillColor=inherit;fontSize=30;" vertex="1" parent="1ikd2FIrZodbas4bm4kL-68">
          <mxGeometry x="4.25" y="3" width="76.5" height="54" as="geometry" />
        </mxCell>
        <mxCell id="1ikd2FIrZodbas4bm4kL-72" value="" style="endArrow=classic;html=1;fontSize=30;strokeWidth=3;" edge="1" parent="1ikd2FIrZodbas4bm4kL-1">
          <mxGeometry width="50" height="50" relative="1" as="geometry">
            <mxPoint x="70" y="211" as="sourcePoint" />
            <mxPoint x="180" y="211" as="targetPoint" />
          </mxGeometry>
        </mxCell>
        <mxCell id="1ikd2FIrZodbas4bm4kL-73" value="" style="endArrow=classic;html=1;fontSize=30;strokeWidth=3;" edge="1" parent="1ikd2FIrZodbas4bm4kL-1">
          <mxGeometry width="50" height="50" relative="1" as="geometry">
            <mxPoint x="70" y="309.5" as="sourcePoint" />
            <mxPoint x="180" y="309.5" as="targetPoint" />
          </mxGeometry>
        </mxCell>
        <mxCell id="1ikd2FIrZodbas4bm4kL-74" value="" style="endArrow=classic;html=1;fontSize=30;strokeWidth=3;" edge="1" parent="1ikd2FIrZodbas4bm4kL-1">
          <mxGeometry width="50" height="50" relative="1" as="geometry">
            <mxPoint x="70" y="409.5" as="sourcePoint" />
            <mxPoint x="180" y="409.5" as="targetPoint" />
          </mxGeometry>
        </mxCell>
        <mxCell id="1ikd2FIrZodbas4bm4kL-75" value="" style="endArrow=classic;html=1;fontSize=30;strokeWidth=3;" edge="1" parent="1ikd2FIrZodbas4bm4kL-1">
          <mxGeometry width="50" height="50" relative="1" as="geometry">
            <mxPoint x="70" y="509.5" as="sourcePoint" />
            <mxPoint x="180" y="509.5" as="targetPoint" />
          </mxGeometry>
        </mxCell>
        <mxCell id="1ikd2FIrZodbas4bm4kL-76" value="" style="endArrow=classic;html=1;fontSize=30;strokeWidth=3;" edge="1" parent="1ikd2FIrZodbas4bm4kL-1">
          <mxGeometry width="50" height="50" relative="1" as="geometry">
            <mxPoint x="310" y="209.5" as="sourcePoint" />
            <mxPoint x="420" y="209.5" as="targetPoint" />
          </mxGeometry>
        </mxCell>
        <mxCell id="1ikd2FIrZodbas4bm4kL-77" value="" style="endArrow=classic;html=1;fontSize=30;strokeWidth=3;" edge="1" parent="1ikd2FIrZodbas4bm4kL-1">
          <mxGeometry width="50" height="50" relative="1" as="geometry">
            <mxPoint x="310" y="309.5" as="sourcePoint" />
            <mxPoint x="420" y="309.5" as="targetPoint" />
          </mxGeometry>
        </mxCell>
        <mxCell id="1ikd2FIrZodbas4bm4kL-78" value="" style="endArrow=classic;html=1;fontSize=30;strokeWidth=3;" edge="1" parent="1ikd2FIrZodbas4bm4kL-1">
          <mxGeometry width="50" height="50" relative="1" as="geometry">
            <mxPoint x="310" y="409.5" as="sourcePoint" />
            <mxPoint x="420" y="409.5" as="targetPoint" />
          </mxGeometry>
        </mxCell>
        <mxCell id="1ikd2FIrZodbas4bm4kL-79" value="" style="endArrow=classic;html=1;fontSize=30;strokeWidth=3;" edge="1" parent="1ikd2FIrZodbas4bm4kL-1">
          <mxGeometry width="50" height="50" relative="1" as="geometry">
            <mxPoint x="540" y="209.5" as="sourcePoint" />
            <mxPoint x="650" y="209.5" as="targetPoint" />
          </mxGeometry>
        </mxCell>
      </root>
    </mxGraphModel>
  </diagram>
  <diagram id="1ugBUBNcVLnWzRTwDNdu" name="Page-3">
    <mxGraphModel dx="1422" dy="801" grid="1" gridSize="10" guides="1" tooltips="1" connect="1" arrows="1" fold="1" page="1" pageScale="1" pageWidth="827" pageHeight="1169" math="0" shadow="0">
      <root>
        <mxCell id="RMPRYjiZmor03rY6PJq_-0" />
        <mxCell id="RMPRYjiZmor03rY6PJq_-1" parent="RMPRYjiZmor03rY6PJq_-0" />
        <mxCell id="RMPRYjiZmor03rY6PJq_-7" style="edgeStyle=orthogonalEdgeStyle;rounded=0;orthogonalLoop=1;jettySize=auto;html=1;exitX=1;exitY=0.5;exitDx=0;exitDy=0;entryX=0;entryY=0.5;entryDx=0;entryDy=0;" parent="RMPRYjiZmor03rY6PJq_-1" source="RMPRYjiZmor03rY6PJq_-2" target="RMPRYjiZmor03rY6PJq_-3" edge="1">
          <mxGeometry relative="1" as="geometry" />
        </mxCell>
        <mxCell id="RMPRYjiZmor03rY6PJq_-2" value="Data Augmentation" style="rounded=0;whiteSpace=wrap;html=1;fillColor=#fff2cc;strokeColor=#d6b656;" parent="RMPRYjiZmor03rY6PJq_-1" vertex="1">
          <mxGeometry x="80" y="280" width="120" height="60" as="geometry" />
        </mxCell>
        <mxCell id="RMPRYjiZmor03rY6PJq_-11" style="edgeStyle=orthogonalEdgeStyle;rounded=0;orthogonalLoop=1;jettySize=auto;html=1;exitX=1;exitY=0.5;exitDx=0;exitDy=0;entryX=0;entryY=0.5;entryDx=0;entryDy=0;" parent="RMPRYjiZmor03rY6PJq_-1" source="RMPRYjiZmor03rY6PJq_-3" target="RMPRYjiZmor03rY6PJq_-4" edge="1">
          <mxGeometry relative="1" as="geometry" />
        </mxCell>
        <mxCell id="RMPRYjiZmor03rY6PJq_-3" value="Bidirectional Encoder" style="rounded=0;whiteSpace=wrap;html=1;fillColor=#f5f5f5;strokeColor=#666666;fontColor=#333333;" parent="RMPRYjiZmor03rY6PJq_-1" vertex="1">
          <mxGeometry x="240" y="280" width="120" height="60" as="geometry" />
        </mxCell>
        <mxCell id="RMPRYjiZmor03rY6PJq_-12" style="edgeStyle=orthogonalEdgeStyle;rounded=0;orthogonalLoop=1;jettySize=auto;html=1;exitX=1;exitY=0.5;exitDx=0;exitDy=0;entryX=0;entryY=0.5;entryDx=0;entryDy=0;" parent="RMPRYjiZmor03rY6PJq_-1" source="RMPRYjiZmor03rY6PJq_-4" target="RMPRYjiZmor03rY6PJq_-5" edge="1">
          <mxGeometry relative="1" as="geometry" />
        </mxCell>
        <mxCell id="RMPRYjiZmor03rY6PJq_-4" value="Autoregressive Decoder" style="rounded=0;whiteSpace=wrap;html=1;fillColor=#dae8fc;strokeColor=#6c8ebf;" parent="RMPRYjiZmor03rY6PJq_-1" vertex="1">
          <mxGeometry x="400" y="280" width="120" height="60" as="geometry" />
        </mxCell>
        <mxCell id="RMPRYjiZmor03rY6PJq_-13" style="edgeStyle=orthogonalEdgeStyle;rounded=0;orthogonalLoop=1;jettySize=auto;html=1;exitX=0.5;exitY=1;exitDx=0;exitDy=0;entryX=0.5;entryY=0;entryDx=0;entryDy=0;" parent="RMPRYjiZmor03rY6PJq_-1" source="RMPRYjiZmor03rY6PJq_-5" target="RMPRYjiZmor03rY6PJq_-19" edge="1">
          <mxGeometry relative="1" as="geometry">
            <mxPoint x="720" y="310" as="targetPoint" />
          </mxGeometry>
        </mxCell>
        <mxCell id="RMPRYjiZmor03rY6PJq_-5" value="Beam search" style="rounded=0;whiteSpace=wrap;html=1;fillColor=#d5e8d4;strokeColor=#82b366;" parent="RMPRYjiZmor03rY6PJq_-1" vertex="1">
          <mxGeometry x="560" y="280" width="120" height="60" as="geometry" />
        </mxCell>
        <mxCell id="RMPRYjiZmor03rY6PJq_-20" style="edgeStyle=orthogonalEdgeStyle;rounded=0;orthogonalLoop=1;jettySize=auto;html=1;exitX=0.5;exitY=1;exitDx=0;exitDy=0;entryX=0.5;entryY=0;entryDx=0;entryDy=0;fontSize=16;" parent="RMPRYjiZmor03rY6PJq_-1" source="RMPRYjiZmor03rY6PJq_-18" target="RMPRYjiZmor03rY6PJq_-2" edge="1">
          <mxGeometry relative="1" as="geometry" />
        </mxCell>
        <mxCell id="RMPRYjiZmor03rY6PJq_-18" value="Spoken-form sentence" style="text;html=1;strokeColor=none;fillColor=none;align=center;verticalAlign=middle;whiteSpace=wrap;rounded=0;fontSize=16;" parent="RMPRYjiZmor03rY6PJq_-1" vertex="1">
          <mxGeometry x="50" y="190" width="180" height="50" as="geometry" />
        </mxCell>
        <mxCell id="RMPRYjiZmor03rY6PJq_-19" value="Written-form sentence" style="text;html=1;strokeColor=none;fillColor=none;align=center;verticalAlign=middle;whiteSpace=wrap;rounded=0;fontSize=16;" parent="RMPRYjiZmor03rY6PJq_-1" vertex="1">
          <mxGeometry x="530" y="380" width="180" height="50" as="geometry" />
        </mxCell>
      </root>
    </mxGraphModel>
  </diagram>
  <diagram id="vd_7cqv3H565kXqxg4Qh" name="Computer Networks">
    <mxGraphModel dx="2249" dy="766" grid="1" gridSize="10" guides="1" tooltips="1" connect="1" arrows="1" fold="1" page="1" pageScale="1" pageWidth="827" pageHeight="1169" math="0" shadow="0">
      <root>
        <mxCell id="pap_Q-H8_oOatOUKusaK-0" />
        <mxCell id="pap_Q-H8_oOatOUKusaK-1" parent="pap_Q-H8_oOatOUKusaK-0" />
        <mxCell id="pap_Q-H8_oOatOUKusaK-2" value="" style="endArrow=none;dashed=1;html=1;rounded=0;fontStyle=1;fontSize=16;" edge="1" parent="pap_Q-H8_oOatOUKusaK-1">
          <mxGeometry width="50" height="50" relative="1" as="geometry">
            <mxPoint x="80" y="640" as="sourcePoint" />
            <mxPoint x="80" y="200" as="targetPoint" />
          </mxGeometry>
        </mxCell>
        <mxCell id="pap_Q-H8_oOatOUKusaK-3" value="" style="endArrow=none;dashed=1;html=1;rounded=0;fontStyle=1;fontSize=16;" edge="1" parent="pap_Q-H8_oOatOUKusaK-1">
          <mxGeometry width="50" height="50" relative="1" as="geometry">
            <mxPoint x="120" y="640" as="sourcePoint" />
            <mxPoint x="120" y="200" as="targetPoint" />
          </mxGeometry>
        </mxCell>
        <mxCell id="pap_Q-H8_oOatOUKusaK-4" value="" style="endArrow=none;dashed=1;html=1;rounded=0;fontStyle=1;fontSize=16;" edge="1" parent="pap_Q-H8_oOatOUKusaK-1">
          <mxGeometry width="50" height="50" relative="1" as="geometry">
            <mxPoint x="160" y="640" as="sourcePoint" />
            <mxPoint x="160" y="200" as="targetPoint" />
          </mxGeometry>
        </mxCell>
        <mxCell id="pap_Q-H8_oOatOUKusaK-6" value="" style="endArrow=none;dashed=1;html=1;rounded=0;fontStyle=1;fontSize=16;" edge="1" parent="pap_Q-H8_oOatOUKusaK-1">
          <mxGeometry width="50" height="50" relative="1" as="geometry">
            <mxPoint x="200" y="640" as="sourcePoint" />
            <mxPoint x="200" y="200" as="targetPoint" />
          </mxGeometry>
        </mxCell>
        <mxCell id="pap_Q-H8_oOatOUKusaK-7" value="" style="endArrow=none;dashed=1;html=1;rounded=0;fontStyle=1;fontSize=16;" edge="1" parent="pap_Q-H8_oOatOUKusaK-1">
          <mxGeometry width="50" height="50" relative="1" as="geometry">
            <mxPoint x="240" y="640" as="sourcePoint" />
            <mxPoint x="240" y="200" as="targetPoint" />
          </mxGeometry>
        </mxCell>
        <mxCell id="pap_Q-H8_oOatOUKusaK-8" value="" style="endArrow=none;dashed=1;html=1;rounded=0;fontStyle=1;fontSize=16;" edge="1" parent="pap_Q-H8_oOatOUKusaK-1">
          <mxGeometry width="50" height="50" relative="1" as="geometry">
            <mxPoint x="280" y="640" as="sourcePoint" />
            <mxPoint x="280" y="200" as="targetPoint" />
          </mxGeometry>
        </mxCell>
        <mxCell id="pap_Q-H8_oOatOUKusaK-9" value="" style="endArrow=none;dashed=1;html=1;rounded=0;fontStyle=1;fontSize=16;" edge="1" parent="pap_Q-H8_oOatOUKusaK-1">
          <mxGeometry width="50" height="50" relative="1" as="geometry">
            <mxPoint x="320" y="640" as="sourcePoint" />
            <mxPoint x="320" y="200" as="targetPoint" />
          </mxGeometry>
        </mxCell>
        <mxCell id="pap_Q-H8_oOatOUKusaK-10" value="" style="endArrow=none;dashed=1;html=1;rounded=0;fontStyle=1;fontSize=16;" edge="1" parent="pap_Q-H8_oOatOUKusaK-1">
          <mxGeometry width="50" height="50" relative="1" as="geometry">
            <mxPoint x="360" y="640" as="sourcePoint" />
            <mxPoint x="360" y="200" as="targetPoint" />
          </mxGeometry>
        </mxCell>
        <mxCell id="pap_Q-H8_oOatOUKusaK-11" value="" style="endArrow=none;dashed=1;html=1;rounded=0;fontStyle=1;fontSize=16;" edge="1" parent="pap_Q-H8_oOatOUKusaK-1">
          <mxGeometry width="50" height="50" relative="1" as="geometry">
            <mxPoint x="400" y="640" as="sourcePoint" />
            <mxPoint x="400" y="200" as="targetPoint" />
          </mxGeometry>
        </mxCell>
        <mxCell id="pap_Q-H8_oOatOUKusaK-12" value="" style="endArrow=none;dashed=1;html=1;rounded=0;fontStyle=1;fontSize=16;" edge="1" parent="pap_Q-H8_oOatOUKusaK-1">
          <mxGeometry width="50" height="50" relative="1" as="geometry">
            <mxPoint x="440" y="640" as="sourcePoint" />
            <mxPoint x="440" y="200" as="targetPoint" />
          </mxGeometry>
        </mxCell>
        <mxCell id="pap_Q-H8_oOatOUKusaK-13" value="" style="endArrow=none;dashed=1;html=1;rounded=0;fontStyle=1;fontSize=16;" edge="1" parent="pap_Q-H8_oOatOUKusaK-1">
          <mxGeometry width="50" height="50" relative="1" as="geometry">
            <mxPoint x="480" y="640" as="sourcePoint" />
            <mxPoint x="480" y="200" as="targetPoint" />
          </mxGeometry>
        </mxCell>
        <mxCell id="pap_Q-H8_oOatOUKusaK-14" value="" style="endArrow=none;dashed=1;html=1;rounded=0;fontStyle=1;fontSize=16;" edge="1" parent="pap_Q-H8_oOatOUKusaK-1">
          <mxGeometry width="50" height="50" relative="1" as="geometry">
            <mxPoint x="520" y="640" as="sourcePoint" />
            <mxPoint x="520" y="200" as="targetPoint" />
          </mxGeometry>
        </mxCell>
        <mxCell id="pap_Q-H8_oOatOUKusaK-15" value="" style="endArrow=none;dashed=1;html=1;rounded=0;fontStyle=1;fontSize=16;" edge="1" parent="pap_Q-H8_oOatOUKusaK-1">
          <mxGeometry width="50" height="50" relative="1" as="geometry">
            <mxPoint x="560" y="640" as="sourcePoint" />
            <mxPoint x="560" y="200" as="targetPoint" />
          </mxGeometry>
        </mxCell>
        <mxCell id="pap_Q-H8_oOatOUKusaK-16" value="" style="endArrow=none;dashed=1;html=1;rounded=0;fontStyle=1;fontSize=16;" edge="1" parent="pap_Q-H8_oOatOUKusaK-1">
          <mxGeometry width="50" height="50" relative="1" as="geometry">
            <mxPoint x="600" y="640" as="sourcePoint" />
            <mxPoint x="600" y="200" as="targetPoint" />
          </mxGeometry>
        </mxCell>
        <mxCell id="pap_Q-H8_oOatOUKusaK-17" value="" style="endArrow=none;dashed=1;html=1;rounded=0;fontStyle=1;fontSize=16;" edge="1" parent="pap_Q-H8_oOatOUKusaK-1">
          <mxGeometry width="50" height="50" relative="1" as="geometry">
            <mxPoint x="640" y="640" as="sourcePoint" />
            <mxPoint x="640" y="200" as="targetPoint" />
          </mxGeometry>
        </mxCell>
        <mxCell id="pap_Q-H8_oOatOUKusaK-18" value="" style="endArrow=none;dashed=1;html=1;rounded=0;fontStyle=1;fontSize=16;" edge="1" parent="pap_Q-H8_oOatOUKusaK-1">
          <mxGeometry width="50" height="50" relative="1" as="geometry">
            <mxPoint x="680" y="640" as="sourcePoint" />
            <mxPoint x="680" y="200" as="targetPoint" />
          </mxGeometry>
        </mxCell>
        <mxCell id="pap_Q-H8_oOatOUKusaK-19" value="" style="endArrow=none;dashed=1;html=1;rounded=0;fontStyle=1;fontSize=16;" edge="1" parent="pap_Q-H8_oOatOUKusaK-1">
          <mxGeometry width="50" height="50" relative="1" as="geometry">
            <mxPoint x="720" y="640" as="sourcePoint" />
            <mxPoint x="720" y="200" as="targetPoint" />
          </mxGeometry>
        </mxCell>
        <mxCell id="pap_Q-H8_oOatOUKusaK-20" value="BITS&lt;br style=&quot;font-size: 16px;&quot;&gt;" style="text;html=1;align=center;verticalAlign=middle;resizable=0;points=[];autosize=1;strokeColor=none;fillColor=none;fontStyle=1;fontSize=16;" vertex="1" parent="pap_Q-H8_oOatOUKusaK-1">
          <mxGeometry x="5" y="210" width="50" height="20" as="geometry" />
        </mxCell>
        <mxCell id="pap_Q-H8_oOatOUKusaK-21" value="1" style="text;html=1;align=center;verticalAlign=middle;resizable=0;points=[];autosize=1;strokeColor=none;fillColor=none;fontStyle=1;fontSize=16;" vertex="1" parent="pap_Q-H8_oOatOUKusaK-1">
          <mxGeometry x="90" y="210" width="20" height="20" as="geometry" />
        </mxCell>
        <mxCell id="pap_Q-H8_oOatOUKusaK-22" value="1" style="text;html=1;align=center;verticalAlign=middle;resizable=0;points=[];autosize=1;strokeColor=none;fillColor=none;fontStyle=1;fontSize=16;" vertex="1" parent="pap_Q-H8_oOatOUKusaK-1">
          <mxGeometry x="130" y="210" width="20" height="20" as="geometry" />
        </mxCell>
        <mxCell id="pap_Q-H8_oOatOUKusaK-23" value="0" style="text;html=1;align=center;verticalAlign=middle;resizable=0;points=[];autosize=1;strokeColor=none;fillColor=none;fontStyle=1;fontSize=16;" vertex="1" parent="pap_Q-H8_oOatOUKusaK-1">
          <mxGeometry x="170" y="210" width="20" height="20" as="geometry" />
        </mxCell>
        <mxCell id="pap_Q-H8_oOatOUKusaK-24" value="1" style="text;html=1;align=center;verticalAlign=middle;resizable=0;points=[];autosize=1;strokeColor=none;fillColor=none;fontStyle=1;fontSize=16;" vertex="1" parent="pap_Q-H8_oOatOUKusaK-1">
          <mxGeometry x="210" y="210" width="20" height="20" as="geometry" />
        </mxCell>
        <mxCell id="pap_Q-H8_oOatOUKusaK-25" value="0" style="text;html=1;align=center;verticalAlign=middle;resizable=0;points=[];autosize=1;strokeColor=none;fillColor=none;fontStyle=1;fontSize=16;" vertex="1" parent="pap_Q-H8_oOatOUKusaK-1">
          <mxGeometry x="250" y="210" width="20" height="20" as="geometry" />
        </mxCell>
        <mxCell id="pap_Q-H8_oOatOUKusaK-26" value="0" style="text;html=1;align=center;verticalAlign=middle;resizable=0;points=[];autosize=1;strokeColor=none;fillColor=none;fontStyle=1;fontSize=16;" vertex="1" parent="pap_Q-H8_oOatOUKusaK-1">
          <mxGeometry x="290" y="210" width="20" height="20" as="geometry" />
        </mxCell>
        <mxCell id="pap_Q-H8_oOatOUKusaK-27" value="0" style="text;html=1;align=center;verticalAlign=middle;resizable=0;points=[];autosize=1;strokeColor=none;fillColor=none;fontStyle=1;fontSize=16;" vertex="1" parent="pap_Q-H8_oOatOUKusaK-1">
          <mxGeometry x="330" y="210" width="20" height="20" as="geometry" />
        </mxCell>
        <mxCell id="pap_Q-H8_oOatOUKusaK-28" value="1" style="text;html=1;align=center;verticalAlign=middle;resizable=0;points=[];autosize=1;strokeColor=none;fillColor=none;fontStyle=1;fontSize=16;" vertex="1" parent="pap_Q-H8_oOatOUKusaK-1">
          <mxGeometry x="370" y="210" width="20" height="20" as="geometry" />
        </mxCell>
        <mxCell id="pap_Q-H8_oOatOUKusaK-33" value="1" style="text;html=1;align=center;verticalAlign=middle;resizable=0;points=[];autosize=1;strokeColor=none;fillColor=none;fontStyle=1;fontSize=16;" vertex="1" parent="pap_Q-H8_oOatOUKusaK-1">
          <mxGeometry x="570" y="210" width="20" height="20" as="geometry" />
        </mxCell>
        <mxCell id="pap_Q-H8_oOatOUKusaK-34" value="0" style="text;html=1;align=center;verticalAlign=middle;resizable=0;points=[];autosize=1;strokeColor=none;fillColor=none;fontStyle=1;fontSize=16;" vertex="1" parent="pap_Q-H8_oOatOUKusaK-1">
          <mxGeometry x="530" y="210" width="20" height="20" as="geometry" />
        </mxCell>
        <mxCell id="pap_Q-H8_oOatOUKusaK-35" value="1" style="text;html=1;align=center;verticalAlign=middle;resizable=0;points=[];autosize=1;strokeColor=none;fillColor=none;fontStyle=1;fontSize=16;" vertex="1" parent="pap_Q-H8_oOatOUKusaK-1">
          <mxGeometry x="490" y="210" width="20" height="20" as="geometry" />
        </mxCell>
        <mxCell id="pap_Q-H8_oOatOUKusaK-36" value="1" style="text;html=1;align=center;verticalAlign=middle;resizable=0;points=[];autosize=1;strokeColor=none;fillColor=none;fontStyle=1;fontSize=16;" vertex="1" parent="pap_Q-H8_oOatOUKusaK-1">
          <mxGeometry x="450" y="210" width="20" height="20" as="geometry" />
        </mxCell>
        <mxCell id="pap_Q-H8_oOatOUKusaK-37" value="0" style="text;html=1;align=center;verticalAlign=middle;resizable=0;points=[];autosize=1;strokeColor=none;fillColor=none;fontStyle=1;fontSize=16;" vertex="1" parent="pap_Q-H8_oOatOUKusaK-1">
          <mxGeometry x="410" y="210" width="20" height="20" as="geometry" />
        </mxCell>
        <mxCell id="pap_Q-H8_oOatOUKusaK-38" value="0" style="text;html=1;align=center;verticalAlign=middle;resizable=0;points=[];autosize=1;strokeColor=none;fillColor=none;fontStyle=1;fontSize=16;" vertex="1" parent="pap_Q-H8_oOatOUKusaK-1">
          <mxGeometry x="690" y="210" width="20" height="20" as="geometry" />
        </mxCell>
        <mxCell id="pap_Q-H8_oOatOUKusaK-39" value="1" style="text;html=1;align=center;verticalAlign=middle;resizable=0;points=[];autosize=1;strokeColor=none;fillColor=none;fontStyle=1;fontSize=16;" vertex="1" parent="pap_Q-H8_oOatOUKusaK-1">
          <mxGeometry x="650" y="210" width="20" height="20" as="geometry" />
        </mxCell>
        <mxCell id="pap_Q-H8_oOatOUKusaK-40" value="1" style="text;html=1;align=center;verticalAlign=middle;resizable=0;points=[];autosize=1;strokeColor=none;fillColor=none;fontStyle=1;fontSize=16;" vertex="1" parent="pap_Q-H8_oOatOUKusaK-1">
          <mxGeometry x="610" y="210" width="20" height="20" as="geometry" />
        </mxCell>
        <mxCell id="pap_Q-H8_oOatOUKusaK-41" value="" style="endArrow=none;html=1;rounded=0;fontStyle=1;strokeWidth=2;fontSize=16;" edge="1" parent="pap_Q-H8_oOatOUKusaK-1">
          <mxGeometry width="50" height="50" relative="1" as="geometry">
            <mxPoint x="80" y="329" as="sourcePoint" />
            <mxPoint x="80" y="279" as="targetPoint" />
          </mxGeometry>
        </mxCell>
        <mxCell id="pap_Q-H8_oOatOUKusaK-42" value="" style="endArrow=none;html=1;rounded=0;strokeWidth=2;fontStyle=1;fontSize=16;" edge="1" parent="pap_Q-H8_oOatOUKusaK-1">
          <mxGeometry width="50" height="50" relative="1" as="geometry">
            <mxPoint x="80" y="329" as="sourcePoint" />
            <mxPoint x="100" y="329" as="targetPoint" />
          </mxGeometry>
        </mxCell>
        <mxCell id="pap_Q-H8_oOatOUKusaK-43" value="" style="endArrow=none;html=1;rounded=0;strokeWidth=2;fontStyle=1;fontSize=16;" edge="1" parent="pap_Q-H8_oOatOUKusaK-1">
          <mxGeometry width="50" height="50" relative="1" as="geometry">
            <mxPoint x="99.5" y="329" as="sourcePoint" />
            <mxPoint x="99.5" y="279" as="targetPoint" />
          </mxGeometry>
        </mxCell>
        <mxCell id="pap_Q-H8_oOatOUKusaK-44" value="" style="endArrow=none;html=1;rounded=0;strokeWidth=2;fontStyle=1;fontSize=16;" edge="1" parent="pap_Q-H8_oOatOUKusaK-1">
          <mxGeometry width="50" height="50" relative="1" as="geometry">
            <mxPoint x="100" y="279" as="sourcePoint" />
            <mxPoint x="120" y="279" as="targetPoint" />
          </mxGeometry>
        </mxCell>
        <mxCell id="pap_Q-H8_oOatOUKusaK-46" value="" style="endArrow=none;html=1;rounded=0;strokeWidth=2;fontStyle=1;fontSize=16;" edge="1" parent="pap_Q-H8_oOatOUKusaK-1">
          <mxGeometry width="50" height="50" relative="1" as="geometry">
            <mxPoint x="120" y="329" as="sourcePoint" />
            <mxPoint x="140" y="329" as="targetPoint" />
          </mxGeometry>
        </mxCell>
        <mxCell id="pap_Q-H8_oOatOUKusaK-47" value="" style="endArrow=none;html=1;rounded=0;strokeWidth=2;fontStyle=1;fontSize=16;" edge="1" parent="pap_Q-H8_oOatOUKusaK-1">
          <mxGeometry width="50" height="50" relative="1" as="geometry">
            <mxPoint x="139.5" y="329" as="sourcePoint" />
            <mxPoint x="139.5" y="279" as="targetPoint" />
          </mxGeometry>
        </mxCell>
        <mxCell id="pap_Q-H8_oOatOUKusaK-48" value="" style="endArrow=none;html=1;rounded=0;strokeWidth=2;fontStyle=1;fontSize=16;" edge="1" parent="pap_Q-H8_oOatOUKusaK-1">
          <mxGeometry width="50" height="50" relative="1" as="geometry">
            <mxPoint x="120" y="329" as="sourcePoint" />
            <mxPoint x="120" y="279" as="targetPoint" />
          </mxGeometry>
        </mxCell>
        <mxCell id="pap_Q-H8_oOatOUKusaK-49" value="" style="endArrow=none;html=1;rounded=0;strokeWidth=2;fontStyle=1;fontSize=16;" edge="1" parent="pap_Q-H8_oOatOUKusaK-1">
          <mxGeometry width="50" height="50" relative="1" as="geometry">
            <mxPoint x="140" y="279" as="sourcePoint" />
            <mxPoint x="160" y="279" as="targetPoint" />
          </mxGeometry>
        </mxCell>
        <mxCell id="pap_Q-H8_oOatOUKusaK-50" value="" style="endArrow=none;html=1;rounded=0;strokeWidth=2;fontStyle=1;fontSize=16;" edge="1" parent="pap_Q-H8_oOatOUKusaK-1">
          <mxGeometry width="50" height="50" relative="1" as="geometry">
            <mxPoint x="160" y="329" as="sourcePoint" />
            <mxPoint x="180" y="329" as="targetPoint" />
          </mxGeometry>
        </mxCell>
        <mxCell id="pap_Q-H8_oOatOUKusaK-51" value="" style="endArrow=none;html=1;rounded=0;strokeWidth=2;fontStyle=1;fontSize=16;" edge="1" parent="pap_Q-H8_oOatOUKusaK-1">
          <mxGeometry width="50" height="50" relative="1" as="geometry">
            <mxPoint x="179.5" y="329" as="sourcePoint" />
            <mxPoint x="179.5" y="279" as="targetPoint" />
          </mxGeometry>
        </mxCell>
        <mxCell id="pap_Q-H8_oOatOUKusaK-52" value="" style="endArrow=none;html=1;rounded=0;strokeWidth=2;fontStyle=1;fontSize=16;" edge="1" parent="pap_Q-H8_oOatOUKusaK-1">
          <mxGeometry width="50" height="50" relative="1" as="geometry">
            <mxPoint x="160" y="329" as="sourcePoint" />
            <mxPoint x="160" y="279" as="targetPoint" />
          </mxGeometry>
        </mxCell>
        <mxCell id="pap_Q-H8_oOatOUKusaK-53" value="" style="endArrow=none;html=1;rounded=0;strokeWidth=2;fontStyle=1;fontSize=16;" edge="1" parent="pap_Q-H8_oOatOUKusaK-1">
          <mxGeometry width="50" height="50" relative="1" as="geometry">
            <mxPoint x="180" y="279" as="sourcePoint" />
            <mxPoint x="200" y="279" as="targetPoint" />
          </mxGeometry>
        </mxCell>
        <mxCell id="pap_Q-H8_oOatOUKusaK-54" value="" style="endArrow=none;html=1;rounded=0;strokeWidth=2;fontStyle=1;fontSize=16;" edge="1" parent="pap_Q-H8_oOatOUKusaK-1">
          <mxGeometry width="50" height="50" relative="1" as="geometry">
            <mxPoint x="200" y="329" as="sourcePoint" />
            <mxPoint x="220" y="329" as="targetPoint" />
          </mxGeometry>
        </mxCell>
        <mxCell id="pap_Q-H8_oOatOUKusaK-55" value="" style="endArrow=none;html=1;rounded=0;strokeWidth=2;fontStyle=1;fontSize=16;" edge="1" parent="pap_Q-H8_oOatOUKusaK-1">
          <mxGeometry width="50" height="50" relative="1" as="geometry">
            <mxPoint x="219.5" y="329" as="sourcePoint" />
            <mxPoint x="219.5" y="279" as="targetPoint" />
          </mxGeometry>
        </mxCell>
        <mxCell id="pap_Q-H8_oOatOUKusaK-56" value="" style="endArrow=none;html=1;rounded=0;strokeWidth=2;fontStyle=1;fontSize=16;" edge="1" parent="pap_Q-H8_oOatOUKusaK-1">
          <mxGeometry width="50" height="50" relative="1" as="geometry">
            <mxPoint x="200" y="329" as="sourcePoint" />
            <mxPoint x="200" y="279" as="targetPoint" />
          </mxGeometry>
        </mxCell>
        <mxCell id="pap_Q-H8_oOatOUKusaK-57" value="" style="endArrow=none;html=1;rounded=0;strokeWidth=2;fontStyle=1;fontSize=16;" edge="1" parent="pap_Q-H8_oOatOUKusaK-1">
          <mxGeometry width="50" height="50" relative="1" as="geometry">
            <mxPoint x="220" y="279" as="sourcePoint" />
            <mxPoint x="240" y="279" as="targetPoint" />
          </mxGeometry>
        </mxCell>
        <mxCell id="pap_Q-H8_oOatOUKusaK-58" value="" style="endArrow=none;html=1;rounded=0;strokeWidth=2;fontStyle=1;fontSize=16;" edge="1" parent="pap_Q-H8_oOatOUKusaK-1">
          <mxGeometry width="50" height="50" relative="1" as="geometry">
            <mxPoint x="240" y="329" as="sourcePoint" />
            <mxPoint x="260" y="329" as="targetPoint" />
          </mxGeometry>
        </mxCell>
        <mxCell id="pap_Q-H8_oOatOUKusaK-59" value="" style="endArrow=none;html=1;rounded=0;strokeWidth=2;fontStyle=1;fontSize=16;" edge="1" parent="pap_Q-H8_oOatOUKusaK-1">
          <mxGeometry width="50" height="50" relative="1" as="geometry">
            <mxPoint x="259.5" y="329" as="sourcePoint" />
            <mxPoint x="259.5" y="279" as="targetPoint" />
          </mxGeometry>
        </mxCell>
        <mxCell id="pap_Q-H8_oOatOUKusaK-60" value="" style="endArrow=none;html=1;rounded=0;strokeWidth=2;fontStyle=1;fontSize=16;" edge="1" parent="pap_Q-H8_oOatOUKusaK-1">
          <mxGeometry width="50" height="50" relative="1" as="geometry">
            <mxPoint x="240" y="329" as="sourcePoint" />
            <mxPoint x="240" y="279" as="targetPoint" />
          </mxGeometry>
        </mxCell>
        <mxCell id="pap_Q-H8_oOatOUKusaK-61" value="" style="endArrow=none;html=1;rounded=0;strokeWidth=2;fontStyle=1;fontSize=16;" edge="1" parent="pap_Q-H8_oOatOUKusaK-1">
          <mxGeometry width="50" height="50" relative="1" as="geometry">
            <mxPoint x="260" y="279" as="sourcePoint" />
            <mxPoint x="280" y="279" as="targetPoint" />
          </mxGeometry>
        </mxCell>
        <mxCell id="pap_Q-H8_oOatOUKusaK-62" value="" style="endArrow=none;html=1;rounded=0;strokeWidth=2;fontStyle=1;fontSize=16;" edge="1" parent="pap_Q-H8_oOatOUKusaK-1">
          <mxGeometry width="50" height="50" relative="1" as="geometry">
            <mxPoint x="280" y="329" as="sourcePoint" />
            <mxPoint x="300" y="329" as="targetPoint" />
          </mxGeometry>
        </mxCell>
        <mxCell id="pap_Q-H8_oOatOUKusaK-63" value="" style="endArrow=none;html=1;rounded=0;strokeWidth=2;fontStyle=1;fontSize=16;" edge="1" parent="pap_Q-H8_oOatOUKusaK-1">
          <mxGeometry width="50" height="50" relative="1" as="geometry">
            <mxPoint x="299.5" y="329" as="sourcePoint" />
            <mxPoint x="299.5" y="279" as="targetPoint" />
          </mxGeometry>
        </mxCell>
        <mxCell id="pap_Q-H8_oOatOUKusaK-64" value="" style="endArrow=none;html=1;rounded=0;strokeWidth=2;fontStyle=1;fontSize=16;" edge="1" parent="pap_Q-H8_oOatOUKusaK-1">
          <mxGeometry width="50" height="50" relative="1" as="geometry">
            <mxPoint x="280" y="329" as="sourcePoint" />
            <mxPoint x="280" y="279" as="targetPoint" />
          </mxGeometry>
        </mxCell>
        <mxCell id="pap_Q-H8_oOatOUKusaK-65" value="" style="endArrow=none;html=1;rounded=0;strokeWidth=2;fontStyle=1;fontSize=16;" edge="1" parent="pap_Q-H8_oOatOUKusaK-1">
          <mxGeometry width="50" height="50" relative="1" as="geometry">
            <mxPoint x="300" y="279" as="sourcePoint" />
            <mxPoint x="320" y="279" as="targetPoint" />
          </mxGeometry>
        </mxCell>
        <mxCell id="pap_Q-H8_oOatOUKusaK-66" value="" style="endArrow=none;html=1;rounded=0;strokeWidth=2;fontStyle=1;fontSize=16;" edge="1" parent="pap_Q-H8_oOatOUKusaK-1">
          <mxGeometry width="50" height="50" relative="1" as="geometry">
            <mxPoint x="320" y="329" as="sourcePoint" />
            <mxPoint x="340" y="329" as="targetPoint" />
          </mxGeometry>
        </mxCell>
        <mxCell id="pap_Q-H8_oOatOUKusaK-67" value="" style="endArrow=none;html=1;rounded=0;strokeWidth=2;fontStyle=1;fontSize=16;" edge="1" parent="pap_Q-H8_oOatOUKusaK-1">
          <mxGeometry width="50" height="50" relative="1" as="geometry">
            <mxPoint x="339.5" y="329" as="sourcePoint" />
            <mxPoint x="339.5" y="279" as="targetPoint" />
          </mxGeometry>
        </mxCell>
        <mxCell id="pap_Q-H8_oOatOUKusaK-68" value="" style="endArrow=none;html=1;rounded=0;strokeWidth=2;fontStyle=1;fontSize=16;" edge="1" parent="pap_Q-H8_oOatOUKusaK-1">
          <mxGeometry width="50" height="50" relative="1" as="geometry">
            <mxPoint x="320" y="329" as="sourcePoint" />
            <mxPoint x="320" y="279" as="targetPoint" />
          </mxGeometry>
        </mxCell>
        <mxCell id="pap_Q-H8_oOatOUKusaK-69" value="" style="endArrow=none;html=1;rounded=0;strokeWidth=2;fontStyle=1;fontSize=16;" edge="1" parent="pap_Q-H8_oOatOUKusaK-1">
          <mxGeometry width="50" height="50" relative="1" as="geometry">
            <mxPoint x="340" y="279" as="sourcePoint" />
            <mxPoint x="360" y="279" as="targetPoint" />
          </mxGeometry>
        </mxCell>
        <mxCell id="pap_Q-H8_oOatOUKusaK-70" value="" style="endArrow=none;html=1;rounded=0;strokeWidth=2;fontStyle=1;fontSize=16;" edge="1" parent="pap_Q-H8_oOatOUKusaK-1">
          <mxGeometry width="50" height="50" relative="1" as="geometry">
            <mxPoint x="360" y="329" as="sourcePoint" />
            <mxPoint x="380" y="329" as="targetPoint" />
          </mxGeometry>
        </mxCell>
        <mxCell id="pap_Q-H8_oOatOUKusaK-71" value="" style="endArrow=none;html=1;rounded=0;strokeWidth=2;fontStyle=1;fontSize=16;" edge="1" parent="pap_Q-H8_oOatOUKusaK-1">
          <mxGeometry width="50" height="50" relative="1" as="geometry">
            <mxPoint x="379.5" y="329" as="sourcePoint" />
            <mxPoint x="379.5" y="279" as="targetPoint" />
          </mxGeometry>
        </mxCell>
        <mxCell id="pap_Q-H8_oOatOUKusaK-72" value="" style="endArrow=none;html=1;rounded=0;strokeWidth=2;fontStyle=1;fontSize=16;" edge="1" parent="pap_Q-H8_oOatOUKusaK-1">
          <mxGeometry width="50" height="50" relative="1" as="geometry">
            <mxPoint x="360" y="329" as="sourcePoint" />
            <mxPoint x="360" y="279" as="targetPoint" />
          </mxGeometry>
        </mxCell>
        <mxCell id="pap_Q-H8_oOatOUKusaK-73" value="" style="endArrow=none;html=1;rounded=0;strokeWidth=2;fontStyle=1;fontSize=16;" edge="1" parent="pap_Q-H8_oOatOUKusaK-1">
          <mxGeometry width="50" height="50" relative="1" as="geometry">
            <mxPoint x="380" y="279" as="sourcePoint" />
            <mxPoint x="400" y="279" as="targetPoint" />
          </mxGeometry>
        </mxCell>
        <mxCell id="pap_Q-H8_oOatOUKusaK-74" value="" style="endArrow=none;html=1;rounded=0;strokeWidth=2;fontStyle=1;fontSize=16;" edge="1" parent="pap_Q-H8_oOatOUKusaK-1">
          <mxGeometry width="50" height="50" relative="1" as="geometry">
            <mxPoint x="400" y="329" as="sourcePoint" />
            <mxPoint x="420" y="329" as="targetPoint" />
          </mxGeometry>
        </mxCell>
        <mxCell id="pap_Q-H8_oOatOUKusaK-75" value="" style="endArrow=none;html=1;rounded=0;strokeWidth=2;fontStyle=1;fontSize=16;" edge="1" parent="pap_Q-H8_oOatOUKusaK-1">
          <mxGeometry width="50" height="50" relative="1" as="geometry">
            <mxPoint x="419.5" y="329" as="sourcePoint" />
            <mxPoint x="419.5" y="279" as="targetPoint" />
          </mxGeometry>
        </mxCell>
        <mxCell id="pap_Q-H8_oOatOUKusaK-76" value="" style="endArrow=none;html=1;rounded=0;strokeWidth=2;fontStyle=1;fontSize=16;" edge="1" parent="pap_Q-H8_oOatOUKusaK-1">
          <mxGeometry width="50" height="50" relative="1" as="geometry">
            <mxPoint x="400" y="329" as="sourcePoint" />
            <mxPoint x="400" y="279" as="targetPoint" />
          </mxGeometry>
        </mxCell>
        <mxCell id="pap_Q-H8_oOatOUKusaK-77" value="" style="endArrow=none;html=1;rounded=0;strokeWidth=2;fontStyle=1;fontSize=16;" edge="1" parent="pap_Q-H8_oOatOUKusaK-1">
          <mxGeometry width="50" height="50" relative="1" as="geometry">
            <mxPoint x="420" y="279" as="sourcePoint" />
            <mxPoint x="440" y="279" as="targetPoint" />
          </mxGeometry>
        </mxCell>
        <mxCell id="pap_Q-H8_oOatOUKusaK-78" value="" style="endArrow=none;html=1;rounded=0;strokeWidth=2;fontStyle=1;fontSize=16;" edge="1" parent="pap_Q-H8_oOatOUKusaK-1">
          <mxGeometry width="50" height="50" relative="1" as="geometry">
            <mxPoint x="440" y="329" as="sourcePoint" />
            <mxPoint x="460" y="329" as="targetPoint" />
          </mxGeometry>
        </mxCell>
        <mxCell id="pap_Q-H8_oOatOUKusaK-79" value="" style="endArrow=none;html=1;rounded=0;strokeWidth=2;fontStyle=1;fontSize=16;" edge="1" parent="pap_Q-H8_oOatOUKusaK-1">
          <mxGeometry width="50" height="50" relative="1" as="geometry">
            <mxPoint x="459.5" y="329" as="sourcePoint" />
            <mxPoint x="459.5" y="279" as="targetPoint" />
          </mxGeometry>
        </mxCell>
        <mxCell id="pap_Q-H8_oOatOUKusaK-80" value="" style="endArrow=none;html=1;rounded=0;strokeWidth=2;fontStyle=1;fontSize=16;" edge="1" parent="pap_Q-H8_oOatOUKusaK-1">
          <mxGeometry width="50" height="50" relative="1" as="geometry">
            <mxPoint x="440" y="329" as="sourcePoint" />
            <mxPoint x="440" y="279" as="targetPoint" />
          </mxGeometry>
        </mxCell>
        <mxCell id="pap_Q-H8_oOatOUKusaK-81" value="" style="endArrow=none;html=1;rounded=0;strokeWidth=2;fontStyle=1;fontSize=16;" edge="1" parent="pap_Q-H8_oOatOUKusaK-1">
          <mxGeometry width="50" height="50" relative="1" as="geometry">
            <mxPoint x="460" y="279" as="sourcePoint" />
            <mxPoint x="480" y="279" as="targetPoint" />
          </mxGeometry>
        </mxCell>
        <mxCell id="pap_Q-H8_oOatOUKusaK-82" value="" style="endArrow=none;html=1;rounded=0;strokeWidth=2;fontStyle=1;fontSize=16;" edge="1" parent="pap_Q-H8_oOatOUKusaK-1">
          <mxGeometry width="50" height="50" relative="1" as="geometry">
            <mxPoint x="480" y="329" as="sourcePoint" />
            <mxPoint x="500" y="329" as="targetPoint" />
          </mxGeometry>
        </mxCell>
        <mxCell id="pap_Q-H8_oOatOUKusaK-83" value="" style="endArrow=none;html=1;rounded=0;strokeWidth=2;fontStyle=1;fontSize=16;" edge="1" parent="pap_Q-H8_oOatOUKusaK-1">
          <mxGeometry width="50" height="50" relative="1" as="geometry">
            <mxPoint x="499.5" y="329" as="sourcePoint" />
            <mxPoint x="499.5" y="279" as="targetPoint" />
          </mxGeometry>
        </mxCell>
        <mxCell id="pap_Q-H8_oOatOUKusaK-84" value="" style="endArrow=none;html=1;rounded=0;strokeWidth=2;fontStyle=1;fontSize=16;" edge="1" parent="pap_Q-H8_oOatOUKusaK-1">
          <mxGeometry width="50" height="50" relative="1" as="geometry">
            <mxPoint x="480" y="329" as="sourcePoint" />
            <mxPoint x="480" y="279" as="targetPoint" />
          </mxGeometry>
        </mxCell>
        <mxCell id="pap_Q-H8_oOatOUKusaK-85" value="" style="endArrow=none;html=1;rounded=0;strokeWidth=2;fontStyle=1;fontSize=16;" edge="1" parent="pap_Q-H8_oOatOUKusaK-1">
          <mxGeometry width="50" height="50" relative="1" as="geometry">
            <mxPoint x="500" y="279" as="sourcePoint" />
            <mxPoint x="520" y="279" as="targetPoint" />
          </mxGeometry>
        </mxCell>
        <mxCell id="pap_Q-H8_oOatOUKusaK-86" value="" style="endArrow=none;html=1;rounded=0;strokeWidth=2;fontStyle=1;fontSize=16;" edge="1" parent="pap_Q-H8_oOatOUKusaK-1">
          <mxGeometry width="50" height="50" relative="1" as="geometry">
            <mxPoint x="520" y="329" as="sourcePoint" />
            <mxPoint x="540" y="329" as="targetPoint" />
          </mxGeometry>
        </mxCell>
        <mxCell id="pap_Q-H8_oOatOUKusaK-87" value="" style="endArrow=none;html=1;rounded=0;strokeWidth=2;fontStyle=1;fontSize=16;" edge="1" parent="pap_Q-H8_oOatOUKusaK-1">
          <mxGeometry width="50" height="50" relative="1" as="geometry">
            <mxPoint x="539.5" y="329" as="sourcePoint" />
            <mxPoint x="539.5" y="279" as="targetPoint" />
          </mxGeometry>
        </mxCell>
        <mxCell id="pap_Q-H8_oOatOUKusaK-88" value="" style="endArrow=none;html=1;rounded=0;strokeWidth=2;fontStyle=1;fontSize=16;" edge="1" parent="pap_Q-H8_oOatOUKusaK-1">
          <mxGeometry width="50" height="50" relative="1" as="geometry">
            <mxPoint x="520" y="329" as="sourcePoint" />
            <mxPoint x="520" y="279" as="targetPoint" />
          </mxGeometry>
        </mxCell>
        <mxCell id="pap_Q-H8_oOatOUKusaK-89" value="" style="endArrow=none;html=1;rounded=0;strokeWidth=2;fontStyle=1;fontSize=16;" edge="1" parent="pap_Q-H8_oOatOUKusaK-1">
          <mxGeometry width="50" height="50" relative="1" as="geometry">
            <mxPoint x="540" y="279" as="sourcePoint" />
            <mxPoint x="560" y="279" as="targetPoint" />
          </mxGeometry>
        </mxCell>
        <mxCell id="pap_Q-H8_oOatOUKusaK-90" value="" style="endArrow=none;html=1;rounded=0;strokeWidth=2;fontStyle=1;fontSize=16;" edge="1" parent="pap_Q-H8_oOatOUKusaK-1">
          <mxGeometry width="50" height="50" relative="1" as="geometry">
            <mxPoint x="560" y="329" as="sourcePoint" />
            <mxPoint x="580" y="329" as="targetPoint" />
          </mxGeometry>
        </mxCell>
        <mxCell id="pap_Q-H8_oOatOUKusaK-91" value="" style="endArrow=none;html=1;rounded=0;strokeWidth=2;fontStyle=1;fontSize=16;" edge="1" parent="pap_Q-H8_oOatOUKusaK-1">
          <mxGeometry width="50" height="50" relative="1" as="geometry">
            <mxPoint x="579.5" y="329" as="sourcePoint" />
            <mxPoint x="579.5" y="279" as="targetPoint" />
          </mxGeometry>
        </mxCell>
        <mxCell id="pap_Q-H8_oOatOUKusaK-92" value="" style="endArrow=none;html=1;rounded=0;strokeWidth=2;fontStyle=1;fontSize=16;" edge="1" parent="pap_Q-H8_oOatOUKusaK-1">
          <mxGeometry width="50" height="50" relative="1" as="geometry">
            <mxPoint x="560" y="329" as="sourcePoint" />
            <mxPoint x="560" y="279" as="targetPoint" />
          </mxGeometry>
        </mxCell>
        <mxCell id="pap_Q-H8_oOatOUKusaK-93" value="" style="endArrow=none;html=1;rounded=0;strokeWidth=2;fontStyle=1;fontSize=16;" edge="1" parent="pap_Q-H8_oOatOUKusaK-1">
          <mxGeometry width="50" height="50" relative="1" as="geometry">
            <mxPoint x="580" y="279" as="sourcePoint" />
            <mxPoint x="600" y="279" as="targetPoint" />
          </mxGeometry>
        </mxCell>
        <mxCell id="pap_Q-H8_oOatOUKusaK-94" value="" style="endArrow=none;html=1;rounded=0;strokeWidth=2;fontStyle=1;fontSize=16;" edge="1" parent="pap_Q-H8_oOatOUKusaK-1">
          <mxGeometry width="50" height="50" relative="1" as="geometry">
            <mxPoint x="600" y="329" as="sourcePoint" />
            <mxPoint x="620" y="329" as="targetPoint" />
          </mxGeometry>
        </mxCell>
        <mxCell id="pap_Q-H8_oOatOUKusaK-95" value="" style="endArrow=none;html=1;rounded=0;strokeWidth=2;fontStyle=1;fontSize=16;" edge="1" parent="pap_Q-H8_oOatOUKusaK-1">
          <mxGeometry width="50" height="50" relative="1" as="geometry">
            <mxPoint x="619.5" y="329" as="sourcePoint" />
            <mxPoint x="619.5" y="279" as="targetPoint" />
          </mxGeometry>
        </mxCell>
        <mxCell id="pap_Q-H8_oOatOUKusaK-96" value="" style="endArrow=none;html=1;rounded=0;strokeWidth=2;fontStyle=1;fontSize=16;" edge="1" parent="pap_Q-H8_oOatOUKusaK-1">
          <mxGeometry width="50" height="50" relative="1" as="geometry">
            <mxPoint x="600" y="329" as="sourcePoint" />
            <mxPoint x="600" y="279" as="targetPoint" />
          </mxGeometry>
        </mxCell>
        <mxCell id="pap_Q-H8_oOatOUKusaK-97" value="" style="endArrow=none;html=1;rounded=0;strokeWidth=2;fontStyle=1;fontSize=16;" edge="1" parent="pap_Q-H8_oOatOUKusaK-1">
          <mxGeometry width="50" height="50" relative="1" as="geometry">
            <mxPoint x="620" y="279" as="sourcePoint" />
            <mxPoint x="640" y="279" as="targetPoint" />
          </mxGeometry>
        </mxCell>
        <mxCell id="pap_Q-H8_oOatOUKusaK-98" value="" style="endArrow=none;html=1;rounded=0;strokeWidth=2;fontStyle=1;fontSize=16;" edge="1" parent="pap_Q-H8_oOatOUKusaK-1">
          <mxGeometry width="50" height="50" relative="1" as="geometry">
            <mxPoint x="640" y="329" as="sourcePoint" />
            <mxPoint x="660" y="329" as="targetPoint" />
          </mxGeometry>
        </mxCell>
        <mxCell id="pap_Q-H8_oOatOUKusaK-99" value="" style="endArrow=none;html=1;rounded=0;strokeWidth=2;fontStyle=1;fontSize=16;" edge="1" parent="pap_Q-H8_oOatOUKusaK-1">
          <mxGeometry width="50" height="50" relative="1" as="geometry">
            <mxPoint x="659.5" y="329" as="sourcePoint" />
            <mxPoint x="659.5" y="279" as="targetPoint" />
          </mxGeometry>
        </mxCell>
        <mxCell id="pap_Q-H8_oOatOUKusaK-100" value="" style="endArrow=none;html=1;rounded=0;strokeWidth=2;fontStyle=1;fontSize=16;" edge="1" parent="pap_Q-H8_oOatOUKusaK-1">
          <mxGeometry width="50" height="50" relative="1" as="geometry">
            <mxPoint x="640" y="329" as="sourcePoint" />
            <mxPoint x="640" y="279" as="targetPoint" />
          </mxGeometry>
        </mxCell>
        <mxCell id="pap_Q-H8_oOatOUKusaK-101" value="" style="endArrow=none;html=1;rounded=0;strokeWidth=2;fontStyle=1;fontSize=16;" edge="1" parent="pap_Q-H8_oOatOUKusaK-1">
          <mxGeometry width="50" height="50" relative="1" as="geometry">
            <mxPoint x="660" y="279" as="sourcePoint" />
            <mxPoint x="680" y="279" as="targetPoint" />
          </mxGeometry>
        </mxCell>
        <mxCell id="pap_Q-H8_oOatOUKusaK-102" value="" style="endArrow=none;html=1;rounded=0;strokeWidth=2;fontStyle=1;fontSize=16;" edge="1" parent="pap_Q-H8_oOatOUKusaK-1">
          <mxGeometry width="50" height="50" relative="1" as="geometry">
            <mxPoint x="680" y="329" as="sourcePoint" />
            <mxPoint x="700" y="329" as="targetPoint" />
          </mxGeometry>
        </mxCell>
        <mxCell id="pap_Q-H8_oOatOUKusaK-103" value="" style="endArrow=none;html=1;rounded=0;strokeWidth=2;fontStyle=1;fontSize=16;" edge="1" parent="pap_Q-H8_oOatOUKusaK-1">
          <mxGeometry width="50" height="50" relative="1" as="geometry">
            <mxPoint x="699.5" y="329" as="sourcePoint" />
            <mxPoint x="699.5" y="279" as="targetPoint" />
          </mxGeometry>
        </mxCell>
        <mxCell id="pap_Q-H8_oOatOUKusaK-104" value="" style="endArrow=none;html=1;rounded=0;strokeWidth=2;fontStyle=1;fontSize=16;" edge="1" parent="pap_Q-H8_oOatOUKusaK-1">
          <mxGeometry width="50" height="50" relative="1" as="geometry">
            <mxPoint x="680" y="329" as="sourcePoint" />
            <mxPoint x="680" y="279" as="targetPoint" />
          </mxGeometry>
        </mxCell>
        <mxCell id="pap_Q-H8_oOatOUKusaK-105" value="" style="endArrow=none;html=1;rounded=0;strokeWidth=2;fontStyle=1;fontSize=16;" edge="1" parent="pap_Q-H8_oOatOUKusaK-1">
          <mxGeometry width="50" height="50" relative="1" as="geometry">
            <mxPoint x="700" y="279" as="sourcePoint" />
            <mxPoint x="720" y="279" as="targetPoint" />
          </mxGeometry>
        </mxCell>
        <mxCell id="pap_Q-H8_oOatOUKusaK-106" value="" style="endArrow=none;html=1;rounded=0;strokeWidth=2;fontStyle=1;fontSize=16;" edge="1" parent="pap_Q-H8_oOatOUKusaK-1">
          <mxGeometry width="50" height="50" relative="1" as="geometry">
            <mxPoint x="720" y="329" as="sourcePoint" />
            <mxPoint x="720" y="279" as="targetPoint" />
          </mxGeometry>
        </mxCell>
        <mxCell id="pap_Q-H8_oOatOUKusaK-107" value="CLOCK" style="text;html=1;align=center;verticalAlign=middle;resizable=0;points=[];autosize=1;strokeColor=none;fillColor=none;fontStyle=1;fontSize=16;" vertex="1" parent="pap_Q-H8_oOatOUKusaK-1">
          <mxGeometry x="-5" y="300" width="70" height="20" as="geometry" />
        </mxCell>
        <mxCell id="pap_Q-H8_oOatOUKusaK-108" value="NRZ" style="text;html=1;align=center;verticalAlign=middle;resizable=0;points=[];autosize=1;strokeColor=none;fillColor=none;fontStyle=1;fontSize=16;" vertex="1" parent="pap_Q-H8_oOatOUKusaK-1">
          <mxGeometry x="5" y="410" width="50" height="20" as="geometry" />
        </mxCell>
        <mxCell id="pap_Q-H8_oOatOUKusaK-109" value="NRZI" style="text;html=1;align=center;verticalAlign=middle;resizable=0;points=[];autosize=1;strokeColor=none;fillColor=none;fontStyle=1;fontSize=16;" vertex="1" parent="pap_Q-H8_oOatOUKusaK-1">
          <mxGeometry x="5" y="510" width="50" height="20" as="geometry" />
        </mxCell>
        <mxCell id="pap_Q-H8_oOatOUKusaK-110" value="Manchester" style="text;html=1;align=center;verticalAlign=middle;resizable=0;points=[];autosize=1;strokeColor=none;fillColor=none;fontStyle=1;fontSize=16;" vertex="1" parent="pap_Q-H8_oOatOUKusaK-1">
          <mxGeometry x="-10" y="610" width="100" height="20" as="geometry" />
        </mxCell>
        <mxCell id="pap_Q-H8_oOatOUKusaK-112" value="" style="endArrow=none;html=1;rounded=0;strokeWidth=2;fontStyle=1;fontSize=16;" edge="1" parent="pap_Q-H8_oOatOUKusaK-1">
          <mxGeometry width="50" height="50" relative="1" as="geometry">
            <mxPoint x="80" y="400" as="sourcePoint" />
            <mxPoint x="160" y="400" as="targetPoint" />
          </mxGeometry>
        </mxCell>
        <mxCell id="pap_Q-H8_oOatOUKusaK-113" value="" style="endArrow=none;html=1;rounded=0;strokeWidth=2;fontStyle=1;fontSize=16;" edge="1" parent="pap_Q-H8_oOatOUKusaK-1">
          <mxGeometry width="50" height="50" relative="1" as="geometry">
            <mxPoint x="160" y="440" as="sourcePoint" />
            <mxPoint x="200" y="440" as="targetPoint" />
          </mxGeometry>
        </mxCell>
        <mxCell id="pap_Q-H8_oOatOUKusaK-114" value="" style="endArrow=none;html=1;rounded=0;strokeWidth=2;fontStyle=1;fontSize=16;" edge="1" parent="pap_Q-H8_oOatOUKusaK-1">
          <mxGeometry width="50" height="50" relative="1" as="geometry">
            <mxPoint x="160" y="440" as="sourcePoint" />
            <mxPoint x="160" y="400" as="targetPoint" />
          </mxGeometry>
        </mxCell>
        <mxCell id="pap_Q-H8_oOatOUKusaK-115" value="" style="endArrow=none;html=1;rounded=0;strokeWidth=2;fontStyle=1;fontSize=16;" edge="1" parent="pap_Q-H8_oOatOUKusaK-1">
          <mxGeometry width="50" height="50" relative="1" as="geometry">
            <mxPoint x="200" y="400" as="sourcePoint" />
            <mxPoint x="200" y="440" as="targetPoint" />
          </mxGeometry>
        </mxCell>
        <mxCell id="pap_Q-H8_oOatOUKusaK-116" value="" style="endArrow=none;html=1;rounded=0;strokeWidth=2;fontStyle=1;fontSize=16;" edge="1" parent="pap_Q-H8_oOatOUKusaK-1">
          <mxGeometry width="50" height="50" relative="1" as="geometry">
            <mxPoint x="200" y="400" as="sourcePoint" />
            <mxPoint x="240" y="400" as="targetPoint" />
          </mxGeometry>
        </mxCell>
        <mxCell id="pap_Q-H8_oOatOUKusaK-117" value="" style="endArrow=none;html=1;rounded=0;strokeWidth=2;fontStyle=1;fontSize=16;" edge="1" parent="pap_Q-H8_oOatOUKusaK-1">
          <mxGeometry width="50" height="50" relative="1" as="geometry">
            <mxPoint x="240" y="440" as="sourcePoint" />
            <mxPoint x="240" y="400" as="targetPoint" />
          </mxGeometry>
        </mxCell>
        <mxCell id="pap_Q-H8_oOatOUKusaK-118" value="" style="endArrow=none;html=1;rounded=0;strokeWidth=2;fontStyle=1;fontSize=16;" edge="1" parent="pap_Q-H8_oOatOUKusaK-1">
          <mxGeometry width="50" height="50" relative="1" as="geometry">
            <mxPoint x="240" y="440" as="sourcePoint" />
            <mxPoint x="360" y="440" as="targetPoint" />
          </mxGeometry>
        </mxCell>
        <mxCell id="pap_Q-H8_oOatOUKusaK-119" value="" style="endArrow=none;html=1;rounded=0;strokeWidth=2;fontStyle=1;fontSize=16;" edge="1" parent="pap_Q-H8_oOatOUKusaK-1">
          <mxGeometry width="50" height="50" relative="1" as="geometry">
            <mxPoint x="360" y="400" as="sourcePoint" />
            <mxPoint x="360" y="440" as="targetPoint" />
          </mxGeometry>
        </mxCell>
        <mxCell id="pap_Q-H8_oOatOUKusaK-120" value="" style="endArrow=none;html=1;rounded=0;strokeWidth=2;fontStyle=1;fontSize=16;" edge="1" parent="pap_Q-H8_oOatOUKusaK-1">
          <mxGeometry width="50" height="50" relative="1" as="geometry">
            <mxPoint x="360" y="400" as="sourcePoint" />
            <mxPoint x="400" y="400" as="targetPoint" />
          </mxGeometry>
        </mxCell>
        <mxCell id="pap_Q-H8_oOatOUKusaK-121" value="" style="endArrow=none;html=1;rounded=0;strokeWidth=2;fontStyle=1;fontSize=16;" edge="1" parent="pap_Q-H8_oOatOUKusaK-1">
          <mxGeometry width="50" height="50" relative="1" as="geometry">
            <mxPoint x="400" y="440" as="sourcePoint" />
            <mxPoint x="400" y="400" as="targetPoint" />
          </mxGeometry>
        </mxCell>
        <mxCell id="pap_Q-H8_oOatOUKusaK-122" value="" style="endArrow=none;html=1;rounded=0;strokeWidth=2;fontStyle=1;fontSize=16;" edge="1" parent="pap_Q-H8_oOatOUKusaK-1">
          <mxGeometry width="50" height="50" relative="1" as="geometry">
            <mxPoint x="400" y="440" as="sourcePoint" />
            <mxPoint x="440" y="440" as="targetPoint" />
          </mxGeometry>
        </mxCell>
        <mxCell id="pap_Q-H8_oOatOUKusaK-123" value="" style="endArrow=none;html=1;rounded=0;strokeWidth=2;fontStyle=1;fontSize=16;" edge="1" parent="pap_Q-H8_oOatOUKusaK-1">
          <mxGeometry width="50" height="50" relative="1" as="geometry">
            <mxPoint x="440" y="400" as="sourcePoint" />
            <mxPoint x="440" y="440" as="targetPoint" />
          </mxGeometry>
        </mxCell>
        <mxCell id="pap_Q-H8_oOatOUKusaK-124" value="" style="endArrow=none;html=1;rounded=0;strokeWidth=2;fontStyle=1;fontSize=16;" edge="1" parent="pap_Q-H8_oOatOUKusaK-1">
          <mxGeometry width="50" height="50" relative="1" as="geometry">
            <mxPoint x="440" y="400" as="sourcePoint" />
            <mxPoint x="520" y="400" as="targetPoint" />
          </mxGeometry>
        </mxCell>
        <mxCell id="pap_Q-H8_oOatOUKusaK-125" value="" style="endArrow=none;html=1;rounded=0;strokeWidth=2;fontStyle=1;fontSize=16;" edge="1" parent="pap_Q-H8_oOatOUKusaK-1">
          <mxGeometry width="50" height="50" relative="1" as="geometry">
            <mxPoint x="520" y="440" as="sourcePoint" />
            <mxPoint x="520" y="400" as="targetPoint" />
          </mxGeometry>
        </mxCell>
        <mxCell id="pap_Q-H8_oOatOUKusaK-126" value="" style="endArrow=none;html=1;rounded=0;strokeWidth=2;fontStyle=1;fontSize=16;" edge="1" parent="pap_Q-H8_oOatOUKusaK-1">
          <mxGeometry width="50" height="50" relative="1" as="geometry">
            <mxPoint x="520" y="440" as="sourcePoint" />
            <mxPoint x="560" y="440" as="targetPoint" />
          </mxGeometry>
        </mxCell>
        <mxCell id="pap_Q-H8_oOatOUKusaK-127" value="" style="endArrow=none;html=1;rounded=0;strokeWidth=2;fontStyle=1;fontSize=16;" edge="1" parent="pap_Q-H8_oOatOUKusaK-1">
          <mxGeometry width="50" height="50" relative="1" as="geometry">
            <mxPoint x="560" y="400" as="sourcePoint" />
            <mxPoint x="560" y="440" as="targetPoint" />
          </mxGeometry>
        </mxCell>
        <mxCell id="pap_Q-H8_oOatOUKusaK-128" value="" style="endArrow=none;html=1;rounded=0;strokeWidth=2;fontStyle=1;fontSize=16;" edge="1" parent="pap_Q-H8_oOatOUKusaK-1">
          <mxGeometry width="50" height="50" relative="1" as="geometry">
            <mxPoint x="560" y="400" as="sourcePoint" />
            <mxPoint x="680" y="400" as="targetPoint" />
          </mxGeometry>
        </mxCell>
        <mxCell id="pap_Q-H8_oOatOUKusaK-129" value="" style="endArrow=none;html=1;rounded=0;strokeWidth=2;fontStyle=1;fontSize=16;" edge="1" parent="pap_Q-H8_oOatOUKusaK-1">
          <mxGeometry width="50" height="50" relative="1" as="geometry">
            <mxPoint x="680" y="440" as="sourcePoint" />
            <mxPoint x="680" y="400" as="targetPoint" />
          </mxGeometry>
        </mxCell>
        <mxCell id="pap_Q-H8_oOatOUKusaK-130" value="" style="endArrow=none;html=1;rounded=0;strokeWidth=2;fontStyle=1;fontSize=16;" edge="1" parent="pap_Q-H8_oOatOUKusaK-1">
          <mxGeometry width="50" height="50" relative="1" as="geometry">
            <mxPoint x="680" y="440" as="sourcePoint" />
            <mxPoint x="720" y="440" as="targetPoint" />
          </mxGeometry>
        </mxCell>
        <mxCell id="pap_Q-H8_oOatOUKusaK-134" value="" style="endArrow=none;html=1;rounded=0;strokeWidth=2;fontStyle=1;fontSize=16;" edge="1" parent="pap_Q-H8_oOatOUKusaK-1">
          <mxGeometry width="50" height="50" relative="1" as="geometry">
            <mxPoint x="99.5" y="540" as="sourcePoint" />
            <mxPoint x="99.5" y="500" as="targetPoint" />
            <Array as="points" />
          </mxGeometry>
        </mxCell>
        <mxCell id="pap_Q-H8_oOatOUKusaK-136" value="" style="endArrow=none;html=1;rounded=0;strokeWidth=2;fontStyle=1;fontSize=16;" edge="1" parent="pap_Q-H8_oOatOUKusaK-1">
          <mxGeometry width="50" height="50" relative="1" as="geometry">
            <mxPoint x="80" y="540" as="sourcePoint" />
            <mxPoint x="99.5" y="540" as="targetPoint" />
            <Array as="points">
              <mxPoint x="99.5" y="540" />
            </Array>
          </mxGeometry>
        </mxCell>
        <mxCell id="pap_Q-H8_oOatOUKusaK-137" value="" style="endArrow=none;html=1;rounded=0;strokeWidth=2;fontStyle=1;fontSize=16;" edge="1" parent="pap_Q-H8_oOatOUKusaK-1">
          <mxGeometry width="50" height="50" relative="1" as="geometry">
            <mxPoint x="120" y="500" as="sourcePoint" />
            <mxPoint x="99.5" y="500" as="targetPoint" />
            <Array as="points">
              <mxPoint x="99.5" y="500" />
            </Array>
          </mxGeometry>
        </mxCell>
        <mxCell id="pap_Q-H8_oOatOUKusaK-142" value="" style="endArrow=none;html=1;rounded=0;strokeWidth=2;fontStyle=1;fontSize=16;" edge="1" parent="pap_Q-H8_oOatOUKusaK-1">
          <mxGeometry width="50" height="50" relative="1" as="geometry">
            <mxPoint x="120" y="540" as="sourcePoint" />
            <mxPoint x="120" y="500" as="targetPoint" />
            <Array as="points" />
          </mxGeometry>
        </mxCell>
        <mxCell id="pap_Q-H8_oOatOUKusaK-144" value="" style="endArrow=none;html=1;rounded=0;strokeWidth=2;fontStyle=1;fontSize=16;" edge="1" parent="pap_Q-H8_oOatOUKusaK-1">
          <mxGeometry width="50" height="50" relative="1" as="geometry">
            <mxPoint x="120" y="540" as="sourcePoint" />
            <mxPoint x="140" y="540" as="targetPoint" />
            <Array as="points" />
          </mxGeometry>
        </mxCell>
        <mxCell id="pap_Q-H8_oOatOUKusaK-145" value="" style="endArrow=none;html=1;rounded=0;strokeWidth=2;fontStyle=1;fontSize=16;" edge="1" parent="pap_Q-H8_oOatOUKusaK-1">
          <mxGeometry width="50" height="50" relative="1" as="geometry">
            <mxPoint x="140" y="500" as="sourcePoint" />
            <mxPoint x="140" y="540" as="targetPoint" />
            <Array as="points" />
          </mxGeometry>
        </mxCell>
        <mxCell id="pap_Q-H8_oOatOUKusaK-146" value="" style="endArrow=none;html=1;rounded=0;strokeWidth=2;fontStyle=1;fontSize=16;" edge="1" parent="pap_Q-H8_oOatOUKusaK-1">
          <mxGeometry width="50" height="50" relative="1" as="geometry">
            <mxPoint x="140" y="500" as="sourcePoint" />
            <mxPoint x="200" y="500" as="targetPoint" />
            <Array as="points" />
          </mxGeometry>
        </mxCell>
        <mxCell id="pap_Q-H8_oOatOUKusaK-147" value="" style="endArrow=none;html=1;rounded=0;strokeWidth=2;fontStyle=1;fontSize=16;" edge="1" parent="pap_Q-H8_oOatOUKusaK-1">
          <mxGeometry width="50" height="50" relative="1" as="geometry">
            <mxPoint x="140" y="500" as="sourcePoint" />
            <mxPoint x="220" y="500" as="targetPoint" />
            <Array as="points" />
          </mxGeometry>
        </mxCell>
        <mxCell id="pap_Q-H8_oOatOUKusaK-148" value="" style="endArrow=none;html=1;rounded=0;strokeWidth=2;fontStyle=1;fontSize=16;" edge="1" parent="pap_Q-H8_oOatOUKusaK-1">
          <mxGeometry width="50" height="50" relative="1" as="geometry">
            <mxPoint x="220" y="540" as="sourcePoint" />
            <mxPoint x="220" y="500" as="targetPoint" />
            <Array as="points" />
          </mxGeometry>
        </mxCell>
        <mxCell id="pap_Q-H8_oOatOUKusaK-149" value="" style="endArrow=none;html=1;rounded=0;strokeWidth=2;fontStyle=1;fontSize=16;" edge="1" parent="pap_Q-H8_oOatOUKusaK-1">
          <mxGeometry width="50" height="50" relative="1" as="geometry">
            <mxPoint x="220" y="540" as="sourcePoint" />
            <mxPoint x="380" y="540" as="targetPoint" />
            <Array as="points" />
          </mxGeometry>
        </mxCell>
        <mxCell id="pap_Q-H8_oOatOUKusaK-150" value="" style="endArrow=none;html=1;rounded=0;strokeWidth=2;fontStyle=1;fontSize=16;" edge="1" parent="pap_Q-H8_oOatOUKusaK-1">
          <mxGeometry width="50" height="50" relative="1" as="geometry">
            <mxPoint x="380" y="500" as="sourcePoint" />
            <mxPoint x="380" y="540" as="targetPoint" />
            <Array as="points" />
          </mxGeometry>
        </mxCell>
        <mxCell id="pap_Q-H8_oOatOUKusaK-151" value="" style="endArrow=none;html=1;rounded=0;strokeWidth=2;fontStyle=1;fontSize=16;" edge="1" parent="pap_Q-H8_oOatOUKusaK-1">
          <mxGeometry width="50" height="50" relative="1" as="geometry">
            <mxPoint x="380" y="500" as="sourcePoint" />
            <mxPoint x="460" y="500" as="targetPoint" />
            <Array as="points" />
          </mxGeometry>
        </mxCell>
        <mxCell id="pap_Q-H8_oOatOUKusaK-152" value="" style="endArrow=none;html=1;rounded=0;strokeWidth=2;fontStyle=1;fontSize=16;" edge="1" parent="pap_Q-H8_oOatOUKusaK-1">
          <mxGeometry width="50" height="50" relative="1" as="geometry">
            <mxPoint x="460" y="540" as="sourcePoint" />
            <mxPoint x="460" y="500" as="targetPoint" />
            <Array as="points" />
          </mxGeometry>
        </mxCell>
        <mxCell id="pap_Q-H8_oOatOUKusaK-153" value="" style="endArrow=none;html=1;rounded=0;strokeWidth=2;fontStyle=1;fontSize=16;" edge="1" parent="pap_Q-H8_oOatOUKusaK-1">
          <mxGeometry width="50" height="50" relative="1" as="geometry">
            <mxPoint x="460" y="540" as="sourcePoint" />
            <mxPoint x="480" y="540" as="targetPoint" />
            <Array as="points" />
          </mxGeometry>
        </mxCell>
        <mxCell id="pap_Q-H8_oOatOUKusaK-154" value="" style="endArrow=none;html=1;rounded=0;strokeWidth=2;fontStyle=1;fontSize=16;" edge="1" parent="pap_Q-H8_oOatOUKusaK-1">
          <mxGeometry width="50" height="50" relative="1" as="geometry">
            <mxPoint x="480" y="500" as="sourcePoint" />
            <mxPoint x="480" y="540" as="targetPoint" />
            <Array as="points" />
          </mxGeometry>
        </mxCell>
        <mxCell id="pap_Q-H8_oOatOUKusaK-155" value="" style="endArrow=none;html=1;rounded=0;strokeWidth=2;fontStyle=1;fontSize=16;" edge="1" parent="pap_Q-H8_oOatOUKusaK-1">
          <mxGeometry width="50" height="50" relative="1" as="geometry">
            <mxPoint x="480" y="500" as="sourcePoint" />
            <mxPoint x="500" y="500" as="targetPoint" />
            <Array as="points" />
          </mxGeometry>
        </mxCell>
        <mxCell id="pap_Q-H8_oOatOUKusaK-156" value="" style="endArrow=none;html=1;rounded=0;strokeWidth=2;fontStyle=1;fontSize=16;" edge="1" parent="pap_Q-H8_oOatOUKusaK-1">
          <mxGeometry width="50" height="50" relative="1" as="geometry">
            <mxPoint x="500" y="540" as="sourcePoint" />
            <mxPoint x="500" y="500" as="targetPoint" />
            <Array as="points" />
          </mxGeometry>
        </mxCell>
        <mxCell id="pap_Q-H8_oOatOUKusaK-157" value="" style="endArrow=none;html=1;rounded=0;strokeWidth=2;fontStyle=1;fontSize=16;" edge="1" parent="pap_Q-H8_oOatOUKusaK-1">
          <mxGeometry width="50" height="50" relative="1" as="geometry">
            <mxPoint x="500" y="540" as="sourcePoint" />
            <mxPoint x="580" y="540" as="targetPoint" />
            <Array as="points" />
          </mxGeometry>
        </mxCell>
        <mxCell id="pap_Q-H8_oOatOUKusaK-158" value="" style="endArrow=none;html=1;rounded=0;strokeWidth=2;fontStyle=1;fontSize=16;" edge="1" parent="pap_Q-H8_oOatOUKusaK-1">
          <mxGeometry width="50" height="50" relative="1" as="geometry">
            <mxPoint x="580" y="500" as="sourcePoint" />
            <mxPoint x="580" y="540" as="targetPoint" />
            <Array as="points" />
          </mxGeometry>
        </mxCell>
        <mxCell id="pap_Q-H8_oOatOUKusaK-159" value="" style="endArrow=none;html=1;rounded=0;strokeWidth=2;fontStyle=1;fontSize=16;" edge="1" parent="pap_Q-H8_oOatOUKusaK-1">
          <mxGeometry width="50" height="50" relative="1" as="geometry">
            <mxPoint x="580" y="500" as="sourcePoint" />
            <mxPoint x="600" y="500" as="targetPoint" />
            <Array as="points" />
          </mxGeometry>
        </mxCell>
        <mxCell id="pap_Q-H8_oOatOUKusaK-160" value="" style="endArrow=none;html=1;rounded=0;strokeWidth=2;fontStyle=1;fontSize=16;" edge="1" parent="pap_Q-H8_oOatOUKusaK-1">
          <mxGeometry width="50" height="50" relative="1" as="geometry">
            <mxPoint x="600" y="540" as="sourcePoint" />
            <mxPoint x="600" y="500" as="targetPoint" />
            <Array as="points" />
          </mxGeometry>
        </mxCell>
        <mxCell id="pap_Q-H8_oOatOUKusaK-161" value="" style="endArrow=none;html=1;rounded=0;strokeWidth=2;fontStyle=1;fontSize=16;" edge="1" parent="pap_Q-H8_oOatOUKusaK-1">
          <mxGeometry width="50" height="50" relative="1" as="geometry">
            <mxPoint x="600" y="540" as="sourcePoint" />
            <mxPoint x="620" y="540" as="targetPoint" />
            <Array as="points" />
          </mxGeometry>
        </mxCell>
        <mxCell id="pap_Q-H8_oOatOUKusaK-162" value="" style="endArrow=none;html=1;rounded=0;strokeWidth=2;fontStyle=1;fontSize=16;" edge="1" parent="pap_Q-H8_oOatOUKusaK-1">
          <mxGeometry width="50" height="50" relative="1" as="geometry">
            <mxPoint x="620" y="500" as="sourcePoint" />
            <mxPoint x="620" y="540" as="targetPoint" />
            <Array as="points" />
          </mxGeometry>
        </mxCell>
        <mxCell id="pap_Q-H8_oOatOUKusaK-163" value="" style="endArrow=none;html=1;rounded=0;strokeWidth=2;fontStyle=1;fontSize=16;" edge="1" parent="pap_Q-H8_oOatOUKusaK-1">
          <mxGeometry width="50" height="50" relative="1" as="geometry">
            <mxPoint x="620" y="500" as="sourcePoint" />
            <mxPoint x="640" y="500" as="targetPoint" />
            <Array as="points" />
          </mxGeometry>
        </mxCell>
        <mxCell id="pap_Q-H8_oOatOUKusaK-164" value="" style="endArrow=none;html=1;rounded=0;strokeWidth=2;fontStyle=1;fontSize=16;" edge="1" parent="pap_Q-H8_oOatOUKusaK-1">
          <mxGeometry width="50" height="50" relative="1" as="geometry">
            <mxPoint x="640" y="540" as="sourcePoint" />
            <mxPoint x="640" y="500" as="targetPoint" />
            <Array as="points" />
          </mxGeometry>
        </mxCell>
        <mxCell id="pap_Q-H8_oOatOUKusaK-165" value="" style="endArrow=none;html=1;rounded=0;strokeWidth=2;fontStyle=1;fontSize=16;" edge="1" parent="pap_Q-H8_oOatOUKusaK-1">
          <mxGeometry width="50" height="50" relative="1" as="geometry">
            <mxPoint x="640" y="540" as="sourcePoint" />
            <mxPoint x="660" y="540" as="targetPoint" />
            <Array as="points" />
          </mxGeometry>
        </mxCell>
        <mxCell id="pap_Q-H8_oOatOUKusaK-166" value="" style="endArrow=none;html=1;rounded=0;strokeWidth=2;fontStyle=1;fontSize=16;" edge="1" parent="pap_Q-H8_oOatOUKusaK-1">
          <mxGeometry width="50" height="50" relative="1" as="geometry">
            <mxPoint x="660" y="500" as="sourcePoint" />
            <mxPoint x="660" y="540" as="targetPoint" />
            <Array as="points" />
          </mxGeometry>
        </mxCell>
        <mxCell id="pap_Q-H8_oOatOUKusaK-167" value="" style="endArrow=none;html=1;rounded=0;strokeWidth=2;fontStyle=1;fontSize=16;" edge="1" parent="pap_Q-H8_oOatOUKusaK-1">
          <mxGeometry width="50" height="50" relative="1" as="geometry">
            <mxPoint x="660" y="500" as="sourcePoint" />
            <mxPoint x="720" y="500" as="targetPoint" />
            <Array as="points" />
          </mxGeometry>
        </mxCell>
        <mxCell id="pap_Q-H8_oOatOUKusaK-175" value="" style="endArrow=none;html=1;rounded=0;strokeWidth=2;fontStyle=1;fontSize=16;" edge="1" parent="pap_Q-H8_oOatOUKusaK-1">
          <mxGeometry width="50" height="50" relative="1" as="geometry">
            <mxPoint x="80" y="600" as="sourcePoint" />
            <mxPoint x="100" y="600" as="targetPoint" />
          </mxGeometry>
        </mxCell>
        <mxCell id="pap_Q-H8_oOatOUKusaK-176" value="" style="endArrow=none;html=1;rounded=0;strokeWidth=2;fontStyle=1;fontSize=16;" edge="1" parent="pap_Q-H8_oOatOUKusaK-1">
          <mxGeometry width="50" height="50" relative="1" as="geometry">
            <mxPoint x="100" y="640" as="sourcePoint" />
            <mxPoint x="100" y="600" as="targetPoint" />
          </mxGeometry>
        </mxCell>
        <mxCell id="pap_Q-H8_oOatOUKusaK-177" value="" style="endArrow=none;html=1;rounded=0;strokeWidth=2;fontStyle=1;fontSize=16;" edge="1" parent="pap_Q-H8_oOatOUKusaK-1">
          <mxGeometry width="50" height="50" relative="1" as="geometry">
            <mxPoint x="100" y="640" as="sourcePoint" />
            <mxPoint x="120" y="640" as="targetPoint" />
          </mxGeometry>
        </mxCell>
        <mxCell id="pap_Q-H8_oOatOUKusaK-178" value="" style="endArrow=none;html=1;rounded=0;strokeWidth=2;fontStyle=1;fontSize=16;" edge="1" parent="pap_Q-H8_oOatOUKusaK-1">
          <mxGeometry width="50" height="50" relative="1" as="geometry">
            <mxPoint x="120" y="600" as="sourcePoint" />
            <mxPoint x="120" y="640" as="targetPoint" />
          </mxGeometry>
        </mxCell>
        <mxCell id="pap_Q-H8_oOatOUKusaK-179" value="" style="endArrow=none;html=1;rounded=0;strokeWidth=2;fontStyle=1;fontSize=16;" edge="1" parent="pap_Q-H8_oOatOUKusaK-1">
          <mxGeometry width="50" height="50" relative="1" as="geometry">
            <mxPoint x="120" y="600" as="sourcePoint" />
            <mxPoint x="140" y="600" as="targetPoint" />
          </mxGeometry>
        </mxCell>
        <mxCell id="pap_Q-H8_oOatOUKusaK-180" value="" style="endArrow=none;html=1;rounded=0;strokeWidth=2;fontStyle=1;fontSize=16;" edge="1" parent="pap_Q-H8_oOatOUKusaK-1">
          <mxGeometry width="50" height="50" relative="1" as="geometry">
            <mxPoint x="140" y="640" as="sourcePoint" />
            <mxPoint x="140" y="600" as="targetPoint" />
          </mxGeometry>
        </mxCell>
        <mxCell id="pap_Q-H8_oOatOUKusaK-181" value="" style="endArrow=none;html=1;rounded=0;strokeWidth=2;fontStyle=1;fontSize=16;" edge="1" parent="pap_Q-H8_oOatOUKusaK-1">
          <mxGeometry width="50" height="50" relative="1" as="geometry">
            <mxPoint x="140" y="640" as="sourcePoint" />
            <mxPoint x="160" y="640" as="targetPoint" />
          </mxGeometry>
        </mxCell>
        <mxCell id="pap_Q-H8_oOatOUKusaK-182" value="" style="endArrow=none;html=1;rounded=0;strokeWidth=2;fontStyle=1;fontSize=16;" edge="1" parent="pap_Q-H8_oOatOUKusaK-1">
          <mxGeometry width="50" height="50" relative="1" as="geometry">
            <mxPoint x="140" y="640" as="sourcePoint" />
            <mxPoint x="180" y="640" as="targetPoint" />
          </mxGeometry>
        </mxCell>
        <mxCell id="pap_Q-H8_oOatOUKusaK-183" value="" style="endArrow=none;html=1;rounded=0;strokeWidth=2;fontStyle=1;fontSize=16;" edge="1" parent="pap_Q-H8_oOatOUKusaK-1">
          <mxGeometry width="50" height="50" relative="1" as="geometry">
            <mxPoint x="180" y="600" as="sourcePoint" />
            <mxPoint x="180" y="640" as="targetPoint" />
          </mxGeometry>
        </mxCell>
        <mxCell id="pap_Q-H8_oOatOUKusaK-184" value="" style="endArrow=none;html=1;rounded=0;strokeWidth=2;fontStyle=1;fontSize=16;" edge="1" parent="pap_Q-H8_oOatOUKusaK-1">
          <mxGeometry width="50" height="50" relative="1" as="geometry">
            <mxPoint x="180" y="600" as="sourcePoint" />
            <mxPoint x="200" y="600" as="targetPoint" />
          </mxGeometry>
        </mxCell>
        <mxCell id="pap_Q-H8_oOatOUKusaK-185" value="" style="endArrow=none;html=1;rounded=0;strokeWidth=2;fontStyle=1;fontSize=16;" edge="1" parent="pap_Q-H8_oOatOUKusaK-1">
          <mxGeometry width="50" height="50" relative="1" as="geometry">
            <mxPoint x="180" y="600" as="sourcePoint" />
            <mxPoint x="220" y="600" as="targetPoint" />
          </mxGeometry>
        </mxCell>
        <mxCell id="pap_Q-H8_oOatOUKusaK-186" value="" style="endArrow=none;html=1;rounded=0;strokeWidth=2;fontStyle=1;fontSize=16;" edge="1" parent="pap_Q-H8_oOatOUKusaK-1">
          <mxGeometry width="50" height="50" relative="1" as="geometry">
            <mxPoint x="220" y="640" as="sourcePoint" />
            <mxPoint x="220" y="600" as="targetPoint" />
          </mxGeometry>
        </mxCell>
        <mxCell id="pap_Q-H8_oOatOUKusaK-187" value="" style="endArrow=none;html=1;rounded=0;strokeWidth=2;fontStyle=1;fontSize=16;" edge="1" parent="pap_Q-H8_oOatOUKusaK-1">
          <mxGeometry width="50" height="50" relative="1" as="geometry">
            <mxPoint x="220" y="640" as="sourcePoint" />
            <mxPoint x="260" y="640" as="targetPoint" />
          </mxGeometry>
        </mxCell>
        <mxCell id="pap_Q-H8_oOatOUKusaK-188" value="" style="endArrow=none;html=1;rounded=0;strokeWidth=2;fontStyle=1;fontSize=16;" edge="1" parent="pap_Q-H8_oOatOUKusaK-1">
          <mxGeometry width="50" height="50" relative="1" as="geometry">
            <mxPoint x="260" y="600" as="sourcePoint" />
            <mxPoint x="260" y="640" as="targetPoint" />
          </mxGeometry>
        </mxCell>
        <mxCell id="pap_Q-H8_oOatOUKusaK-189" value="" style="endArrow=none;html=1;rounded=0;strokeWidth=2;fontStyle=1;fontSize=16;" edge="1" parent="pap_Q-H8_oOatOUKusaK-1">
          <mxGeometry width="50" height="50" relative="1" as="geometry">
            <mxPoint x="260" y="600" as="sourcePoint" />
            <mxPoint x="280" y="600" as="targetPoint" />
          </mxGeometry>
        </mxCell>
        <mxCell id="pap_Q-H8_oOatOUKusaK-190" value="" style="endArrow=none;html=1;rounded=0;strokeWidth=2;fontStyle=1;fontSize=16;" edge="1" parent="pap_Q-H8_oOatOUKusaK-1">
          <mxGeometry width="50" height="50" relative="1" as="geometry">
            <mxPoint x="280" y="640" as="sourcePoint" />
            <mxPoint x="280" y="600" as="targetPoint" />
          </mxGeometry>
        </mxCell>
        <mxCell id="pap_Q-H8_oOatOUKusaK-191" value="" style="endArrow=none;html=1;rounded=0;strokeWidth=2;fontStyle=1;fontSize=16;" edge="1" parent="pap_Q-H8_oOatOUKusaK-1">
          <mxGeometry width="50" height="50" relative="1" as="geometry">
            <mxPoint x="280" y="640" as="sourcePoint" />
            <mxPoint x="300" y="640" as="targetPoint" />
          </mxGeometry>
        </mxCell>
        <mxCell id="pap_Q-H8_oOatOUKusaK-192" value="" style="endArrow=none;html=1;rounded=0;strokeWidth=2;fontStyle=1;fontSize=16;" edge="1" parent="pap_Q-H8_oOatOUKusaK-1">
          <mxGeometry width="50" height="50" relative="1" as="geometry">
            <mxPoint x="300" y="600" as="sourcePoint" />
            <mxPoint x="300" y="640" as="targetPoint" />
          </mxGeometry>
        </mxCell>
        <mxCell id="pap_Q-H8_oOatOUKusaK-193" value="" style="endArrow=none;html=1;rounded=0;strokeWidth=2;fontStyle=1;fontSize=16;" edge="1" parent="pap_Q-H8_oOatOUKusaK-1">
          <mxGeometry width="50" height="50" relative="1" as="geometry">
            <mxPoint x="300" y="600" as="sourcePoint" />
            <mxPoint x="320" y="600" as="targetPoint" />
          </mxGeometry>
        </mxCell>
        <mxCell id="pap_Q-H8_oOatOUKusaK-194" value="" style="endArrow=none;html=1;rounded=0;strokeWidth=2;fontStyle=1;fontSize=16;" edge="1" parent="pap_Q-H8_oOatOUKusaK-1">
          <mxGeometry width="50" height="50" relative="1" as="geometry">
            <mxPoint x="320" y="640" as="sourcePoint" />
            <mxPoint x="320" y="600" as="targetPoint" />
          </mxGeometry>
        </mxCell>
        <mxCell id="pap_Q-H8_oOatOUKusaK-195" value="" style="endArrow=none;html=1;rounded=0;strokeWidth=2;fontStyle=1;fontSize=16;" edge="1" parent="pap_Q-H8_oOatOUKusaK-1">
          <mxGeometry width="50" height="50" relative="1" as="geometry">
            <mxPoint x="320" y="640" as="sourcePoint" />
            <mxPoint x="340" y="640" as="targetPoint" />
          </mxGeometry>
        </mxCell>
        <mxCell id="pap_Q-H8_oOatOUKusaK-196" value="" style="endArrow=none;html=1;rounded=0;strokeWidth=2;fontStyle=1;fontSize=16;" edge="1" parent="pap_Q-H8_oOatOUKusaK-1">
          <mxGeometry width="50" height="50" relative="1" as="geometry">
            <mxPoint x="340" y="600" as="sourcePoint" />
            <mxPoint x="340" y="640" as="targetPoint" />
          </mxGeometry>
        </mxCell>
        <mxCell id="pap_Q-H8_oOatOUKusaK-197" value="" style="endArrow=none;html=1;rounded=0;strokeWidth=2;fontStyle=1;fontSize=16;" edge="1" parent="pap_Q-H8_oOatOUKusaK-1">
          <mxGeometry width="50" height="50" relative="1" as="geometry">
            <mxPoint x="340" y="600" as="sourcePoint" />
            <mxPoint x="360" y="600" as="targetPoint" />
          </mxGeometry>
        </mxCell>
        <mxCell id="pap_Q-H8_oOatOUKusaK-198" value="" style="endArrow=none;html=1;rounded=0;strokeWidth=2;fontStyle=1;fontSize=16;" edge="1" parent="pap_Q-H8_oOatOUKusaK-1">
          <mxGeometry width="50" height="50" relative="1" as="geometry">
            <mxPoint x="340" y="600" as="sourcePoint" />
            <mxPoint x="380" y="600" as="targetPoint" />
          </mxGeometry>
        </mxCell>
        <mxCell id="pap_Q-H8_oOatOUKusaK-199" value="" style="endArrow=none;html=1;rounded=0;strokeWidth=2;fontStyle=1;fontSize=16;" edge="1" parent="pap_Q-H8_oOatOUKusaK-1">
          <mxGeometry width="50" height="50" relative="1" as="geometry">
            <mxPoint x="380" y="640" as="sourcePoint" />
            <mxPoint x="380" y="600" as="targetPoint" />
          </mxGeometry>
        </mxCell>
        <mxCell id="pap_Q-H8_oOatOUKusaK-200" value="" style="endArrow=none;html=1;rounded=0;strokeWidth=2;fontStyle=1;fontSize=16;" edge="1" parent="pap_Q-H8_oOatOUKusaK-1">
          <mxGeometry width="50" height="50" relative="1" as="geometry">
            <mxPoint x="380" y="640" as="sourcePoint" />
            <mxPoint x="420" y="640" as="targetPoint" />
          </mxGeometry>
        </mxCell>
        <mxCell id="pap_Q-H8_oOatOUKusaK-201" value="" style="endArrow=none;html=1;rounded=0;strokeWidth=2;fontStyle=1;fontSize=16;" edge="1" parent="pap_Q-H8_oOatOUKusaK-1">
          <mxGeometry width="50" height="50" relative="1" as="geometry">
            <mxPoint x="420" y="600" as="sourcePoint" />
            <mxPoint x="420" y="640" as="targetPoint" />
          </mxGeometry>
        </mxCell>
        <mxCell id="pap_Q-H8_oOatOUKusaK-202" value="" style="endArrow=none;html=1;rounded=0;strokeWidth=2;fontStyle=1;fontSize=16;" edge="1" parent="pap_Q-H8_oOatOUKusaK-1">
          <mxGeometry width="50" height="50" relative="1" as="geometry">
            <mxPoint x="420" y="600" as="sourcePoint" />
            <mxPoint x="460" y="600" as="targetPoint" />
          </mxGeometry>
        </mxCell>
        <mxCell id="pap_Q-H8_oOatOUKusaK-203" value="" style="endArrow=none;html=1;rounded=0;strokeWidth=2;fontStyle=1;fontSize=16;" edge="1" parent="pap_Q-H8_oOatOUKusaK-1">
          <mxGeometry width="50" height="50" relative="1" as="geometry">
            <mxPoint x="460" y="640" as="sourcePoint" />
            <mxPoint x="460" y="600" as="targetPoint" />
          </mxGeometry>
        </mxCell>
        <mxCell id="pap_Q-H8_oOatOUKusaK-204" value="" style="endArrow=none;html=1;rounded=0;strokeWidth=2;fontStyle=1;fontSize=16;" edge="1" parent="pap_Q-H8_oOatOUKusaK-1">
          <mxGeometry width="50" height="50" relative="1" as="geometry">
            <mxPoint x="460" y="640" as="sourcePoint" />
            <mxPoint x="480" y="640" as="targetPoint" />
          </mxGeometry>
        </mxCell>
        <mxCell id="pap_Q-H8_oOatOUKusaK-205" value="" style="endArrow=none;html=1;rounded=0;strokeWidth=2;fontStyle=1;fontSize=16;" edge="1" parent="pap_Q-H8_oOatOUKusaK-1">
          <mxGeometry width="50" height="50" relative="1" as="geometry">
            <mxPoint x="480" y="600" as="sourcePoint" />
            <mxPoint x="480" y="640" as="targetPoint" />
          </mxGeometry>
        </mxCell>
        <mxCell id="pap_Q-H8_oOatOUKusaK-206" value="" style="endArrow=none;html=1;rounded=0;strokeWidth=2;fontStyle=1;fontSize=16;" edge="1" parent="pap_Q-H8_oOatOUKusaK-1">
          <mxGeometry width="50" height="50" relative="1" as="geometry">
            <mxPoint x="480" y="600" as="sourcePoint" />
            <mxPoint x="500" y="600" as="targetPoint" />
          </mxGeometry>
        </mxCell>
        <mxCell id="pap_Q-H8_oOatOUKusaK-207" value="" style="endArrow=none;html=1;rounded=0;strokeWidth=2;fontStyle=1;fontSize=16;" edge="1" parent="pap_Q-H8_oOatOUKusaK-1">
          <mxGeometry width="50" height="50" relative="1" as="geometry">
            <mxPoint x="500" y="640" as="sourcePoint" />
            <mxPoint x="500" y="600" as="targetPoint" />
          </mxGeometry>
        </mxCell>
        <mxCell id="pap_Q-H8_oOatOUKusaK-208" value="" style="endArrow=none;html=1;rounded=0;strokeWidth=2;fontStyle=1;fontSize=16;" edge="1" parent="pap_Q-H8_oOatOUKusaK-1">
          <mxGeometry width="50" height="50" relative="1" as="geometry">
            <mxPoint x="500" y="640" as="sourcePoint" />
            <mxPoint x="520" y="640" as="targetPoint" />
          </mxGeometry>
        </mxCell>
        <mxCell id="pap_Q-H8_oOatOUKusaK-209" value="" style="endArrow=none;html=1;rounded=0;strokeWidth=2;fontStyle=1;fontSize=16;" edge="1" parent="pap_Q-H8_oOatOUKusaK-1">
          <mxGeometry width="50" height="50" relative="1" as="geometry">
            <mxPoint x="500" y="640" as="sourcePoint" />
            <mxPoint x="540" y="640" as="targetPoint" />
          </mxGeometry>
        </mxCell>
        <mxCell id="pap_Q-H8_oOatOUKusaK-210" value="" style="endArrow=none;html=1;rounded=0;strokeWidth=2;fontStyle=1;fontSize=16;" edge="1" parent="pap_Q-H8_oOatOUKusaK-1">
          <mxGeometry width="50" height="50" relative="1" as="geometry">
            <mxPoint x="540" y="600" as="sourcePoint" />
            <mxPoint x="540" y="640" as="targetPoint" />
          </mxGeometry>
        </mxCell>
        <mxCell id="pap_Q-H8_oOatOUKusaK-211" value="" style="endArrow=none;html=1;rounded=0;strokeWidth=2;fontStyle=1;fontSize=16;" edge="1" parent="pap_Q-H8_oOatOUKusaK-1">
          <mxGeometry width="50" height="50" relative="1" as="geometry">
            <mxPoint x="540" y="600" as="sourcePoint" />
            <mxPoint x="580" y="600" as="targetPoint" />
          </mxGeometry>
        </mxCell>
        <mxCell id="pap_Q-H8_oOatOUKusaK-212" value="" style="endArrow=none;html=1;rounded=0;strokeWidth=2;fontStyle=1;fontSize=16;" edge="1" parent="pap_Q-H8_oOatOUKusaK-1">
          <mxGeometry width="50" height="50" relative="1" as="geometry">
            <mxPoint x="580" y="640" as="sourcePoint" />
            <mxPoint x="580" y="600" as="targetPoint" />
          </mxGeometry>
        </mxCell>
        <mxCell id="pap_Q-H8_oOatOUKusaK-213" value="" style="endArrow=none;html=1;rounded=0;strokeWidth=2;fontStyle=1;fontSize=16;" edge="1" parent="pap_Q-H8_oOatOUKusaK-1">
          <mxGeometry width="50" height="50" relative="1" as="geometry">
            <mxPoint x="580" y="640" as="sourcePoint" />
            <mxPoint x="600" y="640" as="targetPoint" />
          </mxGeometry>
        </mxCell>
        <mxCell id="pap_Q-H8_oOatOUKusaK-214" value="" style="endArrow=none;html=1;rounded=0;strokeWidth=2;fontStyle=1;fontSize=16;" edge="1" parent="pap_Q-H8_oOatOUKusaK-1">
          <mxGeometry width="50" height="50" relative="1" as="geometry">
            <mxPoint x="600" y="600" as="sourcePoint" />
            <mxPoint x="600" y="640" as="targetPoint" />
          </mxGeometry>
        </mxCell>
        <mxCell id="pap_Q-H8_oOatOUKusaK-215" value="" style="endArrow=none;html=1;rounded=0;strokeWidth=2;fontStyle=1;fontSize=16;" edge="1" parent="pap_Q-H8_oOatOUKusaK-1">
          <mxGeometry width="50" height="50" relative="1" as="geometry">
            <mxPoint x="600" y="600" as="sourcePoint" />
            <mxPoint x="620" y="600" as="targetPoint" />
          </mxGeometry>
        </mxCell>
        <mxCell id="pap_Q-H8_oOatOUKusaK-216" value="" style="endArrow=none;html=1;rounded=0;strokeWidth=2;fontStyle=1;fontSize=16;" edge="1" parent="pap_Q-H8_oOatOUKusaK-1">
          <mxGeometry width="50" height="50" relative="1" as="geometry">
            <mxPoint x="620" y="640" as="sourcePoint" />
            <mxPoint x="620" y="600" as="targetPoint" />
          </mxGeometry>
        </mxCell>
        <mxCell id="pap_Q-H8_oOatOUKusaK-217" value="" style="endArrow=none;html=1;rounded=0;strokeWidth=2;fontStyle=1;fontSize=16;" edge="1" parent="pap_Q-H8_oOatOUKusaK-1">
          <mxGeometry width="50" height="50" relative="1" as="geometry">
            <mxPoint x="620" y="640" as="sourcePoint" />
            <mxPoint x="640" y="640" as="targetPoint" />
          </mxGeometry>
        </mxCell>
        <mxCell id="pap_Q-H8_oOatOUKusaK-218" value="" style="endArrow=none;html=1;rounded=0;strokeWidth=2;fontStyle=1;fontSize=16;" edge="1" parent="pap_Q-H8_oOatOUKusaK-1">
          <mxGeometry width="50" height="50" relative="1" as="geometry">
            <mxPoint x="640" y="600" as="sourcePoint" />
            <mxPoint x="640" y="640" as="targetPoint" />
          </mxGeometry>
        </mxCell>
        <mxCell id="pap_Q-H8_oOatOUKusaK-219" value="" style="endArrow=none;html=1;rounded=0;strokeWidth=2;fontStyle=1;fontSize=16;" edge="1" parent="pap_Q-H8_oOatOUKusaK-1">
          <mxGeometry width="50" height="50" relative="1" as="geometry">
            <mxPoint x="640" y="600" as="sourcePoint" />
            <mxPoint x="660" y="600" as="targetPoint" />
          </mxGeometry>
        </mxCell>
        <mxCell id="pap_Q-H8_oOatOUKusaK-220" value="" style="endArrow=none;html=1;rounded=0;strokeWidth=2;fontStyle=1;fontSize=16;" edge="1" parent="pap_Q-H8_oOatOUKusaK-1">
          <mxGeometry width="50" height="50" relative="1" as="geometry">
            <mxPoint x="660" y="640" as="sourcePoint" />
            <mxPoint x="660" y="600" as="targetPoint" />
          </mxGeometry>
        </mxCell>
        <mxCell id="pap_Q-H8_oOatOUKusaK-221" value="" style="endArrow=none;html=1;rounded=0;strokeWidth=2;fontStyle=1;fontSize=16;" edge="1" parent="pap_Q-H8_oOatOUKusaK-1">
          <mxGeometry width="50" height="50" relative="1" as="geometry">
            <mxPoint x="660" y="640" as="sourcePoint" />
            <mxPoint x="700" y="640" as="targetPoint" />
          </mxGeometry>
        </mxCell>
        <mxCell id="pap_Q-H8_oOatOUKusaK-222" value="" style="endArrow=none;html=1;rounded=0;strokeWidth=2;fontStyle=1;fontSize=16;" edge="1" parent="pap_Q-H8_oOatOUKusaK-1">
          <mxGeometry width="50" height="50" relative="1" as="geometry">
            <mxPoint x="700" y="600" as="sourcePoint" />
            <mxPoint x="700" y="640" as="targetPoint" />
          </mxGeometry>
        </mxCell>
        <mxCell id="pap_Q-H8_oOatOUKusaK-223" value="" style="endArrow=none;html=1;rounded=0;strokeWidth=2;fontStyle=1;fontSize=16;" edge="1" parent="pap_Q-H8_oOatOUKusaK-1">
          <mxGeometry width="50" height="50" relative="1" as="geometry">
            <mxPoint x="700" y="600" as="sourcePoint" />
            <mxPoint x="720" y="600" as="targetPoint" />
          </mxGeometry>
        </mxCell>
      </root>
    </mxGraphModel>
  </diagram>
  <diagram id="0X_Y7GfOqiEdsfbodfTN" name="Algo">
    <mxGraphModel dx="1422" dy="705" grid="1" gridSize="10" guides="1" tooltips="1" connect="1" arrows="1" fold="1" page="1" pageScale="1" pageWidth="827" pageHeight="1169" math="0" shadow="0">
      <root>
        <mxCell id="h-lVUtdiEkimqm0XGTap-0" />
        <mxCell id="h-lVUtdiEkimqm0XGTap-1" parent="h-lVUtdiEkimqm0XGTap-0" />
        <mxCell id="h-lVUtdiEkimqm0XGTap-10" style="edgeStyle=orthogonalEdgeStyle;rounded=0;orthogonalLoop=1;jettySize=auto;html=1;exitX=0.5;exitY=1;exitDx=0;exitDy=0;entryX=0.5;entryY=0;entryDx=0;entryDy=0;fontSize=15;" edge="1" parent="h-lVUtdiEkimqm0XGTap-1" source="h-lVUtdiEkimqm0XGTap-4" target="h-lVUtdiEkimqm0XGTap-5">
          <mxGeometry relative="1" as="geometry" />
        </mxCell>
        <mxCell id="h-lVUtdiEkimqm0XGTap-4" value="array s[] size n" style="ellipse;whiteSpace=wrap;html=1;fontSize=15;" vertex="1" parent="h-lVUtdiEkimqm0XGTap-1">
          <mxGeometry x="354" y="130" width="120" height="70" as="geometry" />
        </mxCell>
        <mxCell id="h-lVUtdiEkimqm0XGTap-11" style="edgeStyle=orthogonalEdgeStyle;rounded=0;orthogonalLoop=1;jettySize=auto;html=1;exitX=0.5;exitY=1;exitDx=0;exitDy=0;entryX=0.5;entryY=0;entryDx=0;entryDy=0;fontSize=15;" edge="1" parent="h-lVUtdiEkimqm0XGTap-1" source="h-lVUtdiEkimqm0XGTap-5">
          <mxGeometry relative="1" as="geometry">
            <mxPoint x="414" y="340" as="targetPoint" />
          </mxGeometry>
        </mxCell>
        <mxCell id="h-lVUtdiEkimqm0XGTap-5" value="l = 0&lt;br style=&quot;font-size: 15px;&quot;&gt;r = n - 1" style="rounded=0;whiteSpace=wrap;html=1;fontSize=15;" vertex="1" parent="h-lVUtdiEkimqm0XGTap-1">
          <mxGeometry x="354" y="240" width="120" height="60" as="geometry" />
        </mxCell>
        <mxCell id="h-lVUtdiEkimqm0XGTap-12" style="edgeStyle=orthogonalEdgeStyle;rounded=0;orthogonalLoop=1;jettySize=auto;html=1;exitX=0.5;exitY=1;exitDx=0;exitDy=0;entryX=0.5;entryY=0;entryDx=0;entryDy=0;fontSize=15;" edge="1" parent="h-lVUtdiEkimqm0XGTap-1" target="h-lVUtdiEkimqm0XGTap-23">
          <mxGeometry relative="1" as="geometry">
            <mxPoint x="414" y="400" as="sourcePoint" />
            <mxPoint x="414" y="430" as="targetPoint" />
          </mxGeometry>
        </mxCell>
        <mxCell id="h-lVUtdiEkimqm0XGTap-13" style="edgeStyle=orthogonalEdgeStyle;rounded=0;orthogonalLoop=1;jettySize=auto;html=1;entryX=0;entryY=0.5;entryDx=0;entryDy=0;fontSize=15;" edge="1" parent="h-lVUtdiEkimqm0XGTap-1" target="h-lVUtdiEkimqm0XGTap-8">
          <mxGeometry relative="1" as="geometry">
            <mxPoint x="480" y="370" as="sourcePoint" />
          </mxGeometry>
        </mxCell>
        <mxCell id="h-lVUtdiEkimqm0XGTap-15" style="edgeStyle=orthogonalEdgeStyle;rounded=0;orthogonalLoop=1;jettySize=auto;html=1;exitX=0.5;exitY=1;exitDx=0;exitDy=0;entryX=0.5;entryY=0;entryDx=0;entryDy=0;fontSize=15;" edge="1" parent="h-lVUtdiEkimqm0XGTap-1" source="h-lVUtdiEkimqm0XGTap-23" target="h-lVUtdiEkimqm0XGTap-9">
          <mxGeometry relative="1" as="geometry">
            <mxPoint x="414" y="550" as="sourcePoint" />
          </mxGeometry>
        </mxCell>
        <mxCell id="h-lVUtdiEkimqm0XGTap-8" value="m = -1&lt;br style=&quot;font-size: 15px;&quot;&gt;(Not found)" style="ellipse;whiteSpace=wrap;html=1;fontSize=15;" vertex="1" parent="h-lVUtdiEkimqm0XGTap-1">
          <mxGeometry x="590" y="340" width="120" height="60" as="geometry" />
        </mxCell>
        <mxCell id="h-lVUtdiEkimqm0XGTap-18" style="edgeStyle=orthogonalEdgeStyle;rounded=0;orthogonalLoop=1;jettySize=auto;html=1;exitX=1;exitY=0.5;exitDx=0;exitDy=0;entryX=0;entryY=0.5;entryDx=0;entryDy=0;fontSize=15;" edge="1" parent="h-lVUtdiEkimqm0XGTap-1" source="h-lVUtdiEkimqm0XGTap-9" target="h-lVUtdiEkimqm0XGTap-17">
          <mxGeometry relative="1" as="geometry" />
        </mxCell>
        <mxCell id="h-lVUtdiEkimqm0XGTap-21" style="edgeStyle=orthogonalEdgeStyle;rounded=0;orthogonalLoop=1;jettySize=auto;html=1;exitX=0;exitY=0.5;exitDx=0;exitDy=0;entryX=1;entryY=0.5;entryDx=0;entryDy=0;fontSize=15;" edge="1" parent="h-lVUtdiEkimqm0XGTap-1" source="h-lVUtdiEkimqm0XGTap-9" target="h-lVUtdiEkimqm0XGTap-20">
          <mxGeometry relative="1" as="geometry" />
        </mxCell>
        <mxCell id="h-lVUtdiEkimqm0XGTap-9" value="s[mid] &amp;gt; s[mid-1] &amp;amp;&amp;amp;&lt;br style=&quot;font-size: 15px&quot;&gt;s[mid] &amp;gt; s[mid+1]" style="rhombus;whiteSpace=wrap;html=1;fontSize=15;" vertex="1" parent="h-lVUtdiEkimqm0XGTap-1">
          <mxGeometry x="315" y="590" width="198" height="120" as="geometry" />
        </mxCell>
        <mxCell id="h-lVUtdiEkimqm0XGTap-16" value="YES" style="text;html=1;align=center;verticalAlign=middle;resizable=0;points=[];autosize=1;strokeColor=none;fillColor=none;fontSize=15;" vertex="1" parent="h-lVUtdiEkimqm0XGTap-1">
          <mxGeometry x="410" y="410" width="50" height="20" as="geometry" />
        </mxCell>
        <mxCell id="h-lVUtdiEkimqm0XGTap-17" value="m = mid" style="ellipse;whiteSpace=wrap;html=1;fontSize=15;" vertex="1" parent="h-lVUtdiEkimqm0XGTap-1">
          <mxGeometry x="560" y="620" width="120" height="60" as="geometry" />
        </mxCell>
        <mxCell id="h-lVUtdiEkimqm0XGTap-19" value="YES" style="text;html=1;align=center;verticalAlign=middle;resizable=0;points=[];autosize=1;strokeColor=none;fillColor=none;fontSize=15;" vertex="1" parent="h-lVUtdiEkimqm0XGTap-1">
          <mxGeometry x="501" y="630" width="50" height="20" as="geometry" />
        </mxCell>
        <mxCell id="h-lVUtdiEkimqm0XGTap-25" style="edgeStyle=orthogonalEdgeStyle;rounded=0;orthogonalLoop=1;jettySize=auto;html=1;exitX=0.5;exitY=0;exitDx=0;exitDy=0;entryX=0.5;entryY=1;entryDx=0;entryDy=0;fontSize=15;" edge="1" parent="h-lVUtdiEkimqm0XGTap-1" source="h-lVUtdiEkimqm0XGTap-20" target="h-lVUtdiEkimqm0XGTap-24">
          <mxGeometry relative="1" as="geometry" />
        </mxCell>
        <mxCell id="h-lVUtdiEkimqm0XGTap-27" style="edgeStyle=orthogonalEdgeStyle;rounded=0;orthogonalLoop=1;jettySize=auto;html=1;exitX=0;exitY=0.5;exitDx=0;exitDy=0;entryX=0.5;entryY=1;entryDx=0;entryDy=0;fontSize=15;" edge="1" parent="h-lVUtdiEkimqm0XGTap-1" source="h-lVUtdiEkimqm0XGTap-20" target="h-lVUtdiEkimqm0XGTap-26">
          <mxGeometry relative="1" as="geometry">
            <Array as="points">
              <mxPoint x="60" y="650" />
              <mxPoint x="60" y="505" />
              <mxPoint x="140" y="505" />
            </Array>
          </mxGeometry>
        </mxCell>
        <mxCell id="h-lVUtdiEkimqm0XGTap-20" value="s[mid] &amp;gt;&amp;nbsp;s[mid-1]" style="rhombus;whiteSpace=wrap;html=1;fontSize=15;" vertex="1" parent="h-lVUtdiEkimqm0XGTap-1">
          <mxGeometry x="80" y="590" width="184" height="120" as="geometry" />
        </mxCell>
        <mxCell id="h-lVUtdiEkimqm0XGTap-22" value="NO" style="text;html=1;align=center;verticalAlign=middle;resizable=0;points=[];autosize=1;strokeColor=none;fillColor=none;fontSize=15;" vertex="1" parent="h-lVUtdiEkimqm0XGTap-1">
          <mxGeometry x="270" y="630" width="40" height="20" as="geometry" />
        </mxCell>
        <mxCell id="h-lVUtdiEkimqm0XGTap-23" value="&lt;br style=&quot;font-size: 15px;&quot;&gt;mid = l + (r-l) / 2" style="rounded=0;whiteSpace=wrap;html=1;fontSize=15;" vertex="1" parent="h-lVUtdiEkimqm0XGTap-1">
          <mxGeometry x="354" y="450" width="120" height="60" as="geometry" />
        </mxCell>
        <mxCell id="h-lVUtdiEkimqm0XGTap-30" style="edgeStyle=orthogonalEdgeStyle;rounded=0;orthogonalLoop=1;jettySize=auto;html=1;exitX=0.5;exitY=0;exitDx=0;exitDy=0;entryX=0.5;entryY=0;entryDx=0;entryDy=0;fontSize=15;" edge="1" parent="h-lVUtdiEkimqm0XGTap-1" source="h-lVUtdiEkimqm0XGTap-24" target="h-lVUtdiEkimqm0XGTap-35">
          <mxGeometry relative="1" as="geometry" />
        </mxCell>
        <mxCell id="h-lVUtdiEkimqm0XGTap-24" value="l = mid +1" style="rounded=0;whiteSpace=wrap;html=1;fontSize=15;" vertex="1" parent="h-lVUtdiEkimqm0XGTap-1">
          <mxGeometry x="180" y="450" width="120" height="60" as="geometry" />
        </mxCell>
        <mxCell id="h-lVUtdiEkimqm0XGTap-31" style="edgeStyle=orthogonalEdgeStyle;rounded=0;orthogonalLoop=1;jettySize=auto;html=1;exitX=0.5;exitY=0;exitDx=0;exitDy=0;fontSize=15;" edge="1" parent="h-lVUtdiEkimqm0XGTap-1" source="h-lVUtdiEkimqm0XGTap-26">
          <mxGeometry relative="1" as="geometry">
            <mxPoint x="270" y="320" as="targetPoint" />
            <Array as="points">
              <mxPoint x="140" y="320" />
            </Array>
          </mxGeometry>
        </mxCell>
        <mxCell id="h-lVUtdiEkimqm0XGTap-26" value="r = mid - 1" style="rounded=0;whiteSpace=wrap;html=1;fontSize=15;" vertex="1" parent="h-lVUtdiEkimqm0XGTap-1">
          <mxGeometry x="80" y="360" width="120" height="60" as="geometry" />
        </mxCell>
        <mxCell id="h-lVUtdiEkimqm0XGTap-28" value="YES" style="text;html=1;align=center;verticalAlign=middle;resizable=0;points=[];autosize=1;strokeColor=none;fillColor=none;fontSize=15;" vertex="1" parent="h-lVUtdiEkimqm0XGTap-1">
          <mxGeometry x="195" y="560" width="50" height="20" as="geometry" />
        </mxCell>
        <mxCell id="h-lVUtdiEkimqm0XGTap-29" value="NO" style="text;html=1;align=center;verticalAlign=middle;resizable=0;points=[];autosize=1;strokeColor=none;fillColor=none;fontSize=15;" vertex="1" parent="h-lVUtdiEkimqm0XGTap-1">
          <mxGeometry x="60" y="600" width="40" height="20" as="geometry" />
        </mxCell>
        <mxCell id="h-lVUtdiEkimqm0XGTap-35" value="r &amp;gt;= l" style="rhombus;whiteSpace=wrap;html=1;fontSize=15;" vertex="1" parent="h-lVUtdiEkimqm0XGTap-1">
          <mxGeometry x="349" y="340" width="130" height="60" as="geometry" />
        </mxCell>
        <mxCell id="h-lVUtdiEkimqm0XGTap-36" value="NO" style="text;html=1;align=center;verticalAlign=middle;resizable=0;points=[];autosize=1;strokeColor=none;fillColor=none;fontSize=15;" vertex="1" parent="h-lVUtdiEkimqm0XGTap-1">
          <mxGeometry x="506" y="350" width="40" height="20" as="geometry" />
        </mxCell>
      </root>
    </mxGraphModel>
  </diagram>
  <diagram id="sQkvcY-xBNzCMeDQ9bPL" name="G214E1">
    <mxGraphModel dx="1422" dy="740" grid="1" gridSize="10" guides="1" tooltips="1" connect="1" arrows="1" fold="1" page="1" pageScale="1" pageWidth="827" pageHeight="1169" math="0" shadow="0">
      <root>
        <mxCell id="PKWbRFFw8X4XJdvXfRhR-0" />
        <mxCell id="PKWbRFFw8X4XJdvXfRhR-1" parent="PKWbRFFw8X4XJdvXfRhR-0" />
        <mxCell id="PKWbRFFw8X4XJdvXfRhR-12" style="rounded=0;orthogonalLoop=1;jettySize=auto;html=1;exitX=1;exitY=0.5;exitDx=0;exitDy=0;entryX=0;entryY=0.5;entryDx=0;entryDy=0;fontSize=14;" edge="1" parent="PKWbRFFw8X4XJdvXfRhR-1" source="PKWbRFFw8X4XJdvXfRhR-19" target="PKWbRFFw8X4XJdvXfRhR-5">
          <mxGeometry relative="1" as="geometry" />
        </mxCell>
        <mxCell id="PKWbRFFw8X4XJdvXfRhR-13" style="rounded=0;orthogonalLoop=1;jettySize=auto;html=1;exitX=0.5;exitY=0;exitDx=0;exitDy=0;entryX=0.5;entryY=1;entryDx=0;entryDy=0;fontSize=14;" edge="1" parent="PKWbRFFw8X4XJdvXfRhR-1" source="PKWbRFFw8X4XJdvXfRhR-2" target="PKWbRFFw8X4XJdvXfRhR-6">
          <mxGeometry relative="1" as="geometry">
            <mxPoint x="420" y="160" as="targetPoint" />
          </mxGeometry>
        </mxCell>
        <mxCell id="PKWbRFFw8X4XJdvXfRhR-20" style="edgeStyle=none;rounded=0;orthogonalLoop=1;jettySize=auto;html=1;exitX=0.5;exitY=1;exitDx=0;exitDy=0;fontSize=14;" edge="1" parent="PKWbRFFw8X4XJdvXfRhR-1" source="PKWbRFFw8X4XJdvXfRhR-2" target="PKWbRFFw8X4XJdvXfRhR-19">
          <mxGeometry relative="1" as="geometry">
            <mxPoint x="456" y="260" as="sourcePoint" />
          </mxGeometry>
        </mxCell>
        <mxCell id="PKWbRFFw8X4XJdvXfRhR-27" style="edgeStyle=none;rounded=0;orthogonalLoop=1;jettySize=auto;html=1;exitX=1;exitY=0.5;exitDx=0;exitDy=0;entryX=0;entryY=0.5;entryDx=0;entryDy=0;fontSize=14;" edge="1" parent="PKWbRFFw8X4XJdvXfRhR-1" source="PKWbRFFw8X4XJdvXfRhR-2" target="PKWbRFFw8X4XJdvXfRhR-26">
          <mxGeometry relative="1" as="geometry" />
        </mxCell>
        <mxCell id="PKWbRFFw8X4XJdvXfRhR-39" style="edgeStyle=none;rounded=0;orthogonalLoop=1;jettySize=auto;html=1;exitX=0.5;exitY=1;exitDx=0;exitDy=0;entryX=0.5;entryY=0;entryDx=0;entryDy=0;fontSize=14;" edge="1" parent="PKWbRFFw8X4XJdvXfRhR-1" source="PKWbRFFw8X4XJdvXfRhR-2" target="PKWbRFFw8X4XJdvXfRhR-3">
          <mxGeometry relative="1" as="geometry" />
        </mxCell>
        <mxCell id="PKWbRFFw8X4XJdvXfRhR-40" style="edgeStyle=none;rounded=0;orthogonalLoop=1;jettySize=auto;html=1;exitX=0;exitY=0.5;exitDx=0;exitDy=0;entryX=1;entryY=0.5;entryDx=0;entryDy=0;fontSize=14;" edge="1" parent="PKWbRFFw8X4XJdvXfRhR-1" source="PKWbRFFw8X4XJdvXfRhR-2" target="PKWbRFFw8X4XJdvXfRhR-4">
          <mxGeometry relative="1" as="geometry" />
        </mxCell>
        <mxCell id="PKWbRFFw8X4XJdvXfRhR-2" value="Unbalanced SRB in Vietnam" style="ellipse;whiteSpace=wrap;html=1;fillColor=#dae8fc;strokeColor=#6c8ebf;fontStyle=1;fontSize=14;" vertex="1" parent="PKWbRFFw8X4XJdvXfRhR-1">
          <mxGeometry x="368" y="205" width="211" height="50" as="geometry" />
        </mxCell>
        <mxCell id="PKWbRFFw8X4XJdvXfRhR-10" style="rounded=0;orthogonalLoop=1;jettySize=auto;html=1;exitX=1;exitY=0.5;exitDx=0;exitDy=0;fontSize=14;" edge="1" parent="PKWbRFFw8X4XJdvXfRhR-1" source="PKWbRFFw8X4XJdvXfRhR-3" target="PKWbRFFw8X4XJdvXfRhR-8">
          <mxGeometry relative="1" as="geometry" />
        </mxCell>
        <mxCell id="PKWbRFFw8X4XJdvXfRhR-23" style="edgeStyle=none;rounded=0;orthogonalLoop=1;jettySize=auto;html=1;exitX=0.5;exitY=1;exitDx=0;exitDy=0;entryX=0.5;entryY=0;entryDx=0;entryDy=0;fontSize=14;" edge="1" parent="PKWbRFFw8X4XJdvXfRhR-1" source="PKWbRFFw8X4XJdvXfRhR-3" target="PKWbRFFw8X4XJdvXfRhR-22">
          <mxGeometry relative="1" as="geometry" />
        </mxCell>
        <mxCell id="PKWbRFFw8X4XJdvXfRhR-25" style="edgeStyle=none;rounded=0;orthogonalLoop=1;jettySize=auto;html=1;exitX=0.5;exitY=1;exitDx=0;exitDy=0;fontSize=14;" edge="1" parent="PKWbRFFw8X4XJdvXfRhR-1" source="PKWbRFFw8X4XJdvXfRhR-3" target="PKWbRFFw8X4XJdvXfRhR-24">
          <mxGeometry relative="1" as="geometry" />
        </mxCell>
        <mxCell id="PKWbRFFw8X4XJdvXfRhR-3" value="Men hard to get married" style="ellipse;whiteSpace=wrap;html=1;fontSize=14;fillColor=#f5f5f5;fontColor=#333333;strokeColor=#666666;" vertex="1" parent="PKWbRFFw8X4XJdvXfRhR-1">
          <mxGeometry x="290" y="300" width="120" height="60" as="geometry" />
        </mxCell>
        <mxCell id="PKWbRFFw8X4XJdvXfRhR-44" style="edgeStyle=none;rounded=0;orthogonalLoop=1;jettySize=auto;html=1;exitX=0.5;exitY=0;exitDx=0;exitDy=0;entryX=0.642;entryY=0.967;entryDx=0;entryDy=0;entryPerimeter=0;fontSize=14;" edge="1" parent="PKWbRFFw8X4XJdvXfRhR-1" source="PKWbRFFw8X4XJdvXfRhR-4" target="PKWbRFFw8X4XJdvXfRhR-41">
          <mxGeometry relative="1" as="geometry" />
        </mxCell>
        <mxCell id="PKWbRFFw8X4XJdvXfRhR-4" value="sex crimes" style="ellipse;whiteSpace=wrap;html=1;fontSize=14;fillColor=#f5f5f5;fontColor=#333333;strokeColor=#666666;" vertex="1" parent="PKWbRFFw8X4XJdvXfRhR-1">
          <mxGeometry x="220" y="220" width="120" height="60" as="geometry" />
        </mxCell>
        <mxCell id="PKWbRFFw8X4XJdvXfRhR-49" style="edgeStyle=none;rounded=0;orthogonalLoop=1;jettySize=auto;html=1;exitX=0;exitY=1;exitDx=0;exitDy=0;entryX=1;entryY=0;entryDx=0;entryDy=0;fontSize=14;" edge="1" parent="PKWbRFFw8X4XJdvXfRhR-1" source="PKWbRFFw8X4XJdvXfRhR-5" target="PKWbRFFw8X4XJdvXfRhR-24">
          <mxGeometry relative="1" as="geometry">
            <mxPoint x="670" y="400" as="targetPoint" />
          </mxGeometry>
        </mxCell>
        <mxCell id="PKWbRFFw8X4XJdvXfRhR-5" value="trafficking of women and children" style="ellipse;whiteSpace=wrap;html=1;fontSize=14;" vertex="1" parent="PKWbRFFw8X4XJdvXfRhR-1">
          <mxGeometry x="610" y="320" width="120" height="60" as="geometry" />
        </mxCell>
        <mxCell id="PKWbRFFw8X4XJdvXfRhR-16" style="edgeStyle=none;rounded=0;orthogonalLoop=1;jettySize=auto;html=1;exitX=0.5;exitY=1;exitDx=0;exitDy=0;entryX=1;entryY=0;entryDx=0;entryDy=0;fontSize=14;" edge="1" parent="PKWbRFFw8X4XJdvXfRhR-1" source="PKWbRFFw8X4XJdvXfRhR-6" target="PKWbRFFw8X4XJdvXfRhR-4">
          <mxGeometry relative="1" as="geometry" />
        </mxCell>
        <mxCell id="PKWbRFFw8X4XJdvXfRhR-42" style="edgeStyle=none;rounded=0;orthogonalLoop=1;jettySize=auto;html=1;exitX=0;exitY=1;exitDx=0;exitDy=0;entryX=1;entryY=0.5;entryDx=0;entryDy=0;fontSize=14;" edge="1" parent="PKWbRFFw8X4XJdvXfRhR-1" source="PKWbRFFw8X4XJdvXfRhR-6" target="PKWbRFFw8X4XJdvXfRhR-41">
          <mxGeometry relative="1" as="geometry" />
        </mxCell>
        <mxCell id="PKWbRFFw8X4XJdvXfRhR-6" value="Prostitution business" style="ellipse;whiteSpace=wrap;html=1;fontSize=14;fillColor=#f5f5f5;fontColor=#333333;strokeColor=#666666;" vertex="1" parent="PKWbRFFw8X4XJdvXfRhR-1">
          <mxGeometry x="340" y="80" width="120" height="60" as="geometry" />
        </mxCell>
        <mxCell id="PKWbRFFw8X4XJdvXfRhR-43" style="edgeStyle=none;rounded=0;orthogonalLoop=1;jettySize=auto;html=1;exitX=0.5;exitY=0;exitDx=0;exitDy=0;entryX=0;entryY=1;entryDx=0;entryDy=0;fontSize=14;" edge="1" parent="PKWbRFFw8X4XJdvXfRhR-1" source="PKWbRFFw8X4XJdvXfRhR-7" target="PKWbRFFw8X4XJdvXfRhR-41">
          <mxGeometry relative="1" as="geometry">
            <mxPoint x="150" y="205" as="sourcePoint" />
          </mxGeometry>
        </mxCell>
        <mxCell id="PKWbRFFw8X4XJdvXfRhR-7" value="HIV-AIDS" style="ellipse;whiteSpace=wrap;html=1;fontSize=14;" vertex="1" parent="PKWbRFFw8X4XJdvXfRhR-1">
          <mxGeometry x="90" y="240" width="120" height="60" as="geometry" />
        </mxCell>
        <mxCell id="PKWbRFFw8X4XJdvXfRhR-9" style="rounded=0;orthogonalLoop=1;jettySize=auto;html=1;exitX=0.5;exitY=0;exitDx=0;exitDy=0;entryX=0.442;entryY=1.033;entryDx=0;entryDy=0;entryPerimeter=0;fontSize=14;" edge="1" parent="PKWbRFFw8X4XJdvXfRhR-1" source="PKWbRFFw8X4XJdvXfRhR-8" target="PKWbRFFw8X4XJdvXfRhR-4">
          <mxGeometry relative="1" as="geometry" />
        </mxCell>
        <mxCell id="PKWbRFFw8X4XJdvXfRhR-18" style="edgeStyle=none;rounded=0;orthogonalLoop=1;jettySize=auto;html=1;exitX=0.5;exitY=0;exitDx=0;exitDy=0;entryX=0.5;entryY=1;entryDx=0;entryDy=0;fontSize=14;" edge="1" parent="PKWbRFFw8X4XJdvXfRhR-1" source="PKWbRFFw8X4XJdvXfRhR-8" target="PKWbRFFw8X4XJdvXfRhR-7">
          <mxGeometry relative="1" as="geometry">
            <mxPoint x="150" y="265" as="targetPoint" />
          </mxGeometry>
        </mxCell>
        <mxCell id="PKWbRFFw8X4XJdvXfRhR-8" value="rapes increases" style="ellipse;whiteSpace=wrap;html=1;fontSize=14;" vertex="1" parent="PKWbRFFw8X4XJdvXfRhR-1">
          <mxGeometry x="140" y="350" width="120" height="60" as="geometry" />
        </mxCell>
        <mxCell id="PKWbRFFw8X4XJdvXfRhR-21" style="edgeStyle=none;rounded=0;orthogonalLoop=1;jettySize=auto;html=1;exitX=0;exitY=0.5;exitDx=0;exitDy=0;entryX=1;entryY=0.5;entryDx=0;entryDy=0;fontSize=14;" edge="1" parent="PKWbRFFw8X4XJdvXfRhR-1" source="PKWbRFFw8X4XJdvXfRhR-19" target="PKWbRFFw8X4XJdvXfRhR-3">
          <mxGeometry relative="1" as="geometry" />
        </mxCell>
        <mxCell id="PKWbRFFw8X4XJdvXfRhR-19" value="lack of women" style="ellipse;whiteSpace=wrap;html=1;fontSize=14;fillColor=#f5f5f5;fontColor=#333333;strokeColor=#666666;" vertex="1" parent="PKWbRFFw8X4XJdvXfRhR-1">
          <mxGeometry x="441" y="300" width="120" height="60" as="geometry" />
        </mxCell>
        <mxCell id="PKWbRFFw8X4XJdvXfRhR-22" value="happiness of a family" style="ellipse;whiteSpace=wrap;html=1;fontSize=14;" vertex="1" parent="PKWbRFFw8X4XJdvXfRhR-1">
          <mxGeometry x="290" y="400" width="120" height="60" as="geometry" />
        </mxCell>
        <mxCell id="PKWbRFFw8X4XJdvXfRhR-24" value="psychological stress" style="ellipse;whiteSpace=wrap;html=1;fontSize=14;" vertex="1" parent="PKWbRFFw8X4XJdvXfRhR-1">
          <mxGeometry x="470" y="390" width="120" height="60" as="geometry" />
        </mxCell>
        <mxCell id="PKWbRFFw8X4XJdvXfRhR-29" style="edgeStyle=none;rounded=0;orthogonalLoop=1;jettySize=auto;html=1;exitX=0.5;exitY=0;exitDx=0;exitDy=0;entryX=0.5;entryY=1;entryDx=0;entryDy=0;fontSize=14;" edge="1" parent="PKWbRFFw8X4XJdvXfRhR-1" source="PKWbRFFw8X4XJdvXfRhR-26" target="PKWbRFFw8X4XJdvXfRhR-28">
          <mxGeometry relative="1" as="geometry" />
        </mxCell>
        <mxCell id="PKWbRFFw8X4XJdvXfRhR-31" style="edgeStyle=none;rounded=0;orthogonalLoop=1;jettySize=auto;html=1;exitX=0.5;exitY=0;exitDx=0;exitDy=0;entryX=1;entryY=1;entryDx=0;entryDy=0;fontSize=14;" edge="1" parent="PKWbRFFw8X4XJdvXfRhR-1" source="PKWbRFFw8X4XJdvXfRhR-26" target="PKWbRFFw8X4XJdvXfRhR-30">
          <mxGeometry relative="1" as="geometry" />
        </mxCell>
        <mxCell id="PKWbRFFw8X4XJdvXfRhR-26" value="lead to more abortions" style="ellipse;whiteSpace=wrap;html=1;fontSize=14;fillColor=#f5f5f5;fontColor=#333333;strokeColor=#666666;" vertex="1" parent="PKWbRFFw8X4XJdvXfRhR-1">
          <mxGeometry x="620" y="230" width="120" height="60" as="geometry" />
        </mxCell>
        <mxCell id="PKWbRFFw8X4XJdvXfRhR-34" style="edgeStyle=none;rounded=0;orthogonalLoop=1;jettySize=auto;html=1;exitX=0;exitY=0.5;exitDx=0;exitDy=0;entryX=1;entryY=0.5;entryDx=0;entryDy=0;fontSize=14;" edge="1" parent="PKWbRFFw8X4XJdvXfRhR-1" source="PKWbRFFw8X4XJdvXfRhR-28" target="PKWbRFFw8X4XJdvXfRhR-30">
          <mxGeometry relative="1" as="geometry" />
        </mxCell>
        <mxCell id="PKWbRFFw8X4XJdvXfRhR-28" value="women&#39;s health" style="ellipse;whiteSpace=wrap;html=1;fontSize=14;" vertex="1" parent="PKWbRFFw8X4XJdvXfRhR-1">
          <mxGeometry x="640" y="130" width="120" height="60" as="geometry" />
        </mxCell>
        <mxCell id="PKWbRFFw8X4XJdvXfRhR-47" style="edgeStyle=none;rounded=0;orthogonalLoop=1;jettySize=auto;html=1;exitX=0.5;exitY=0;exitDx=0;exitDy=0;entryX=0;entryY=1;entryDx=0;entryDy=0;fontSize=14;" edge="1" parent="PKWbRFFw8X4XJdvXfRhR-1" source="PKWbRFFw8X4XJdvXfRhR-30" target="PKWbRFFw8X4XJdvXfRhR-46">
          <mxGeometry relative="1" as="geometry" />
        </mxCell>
        <mxCell id="PKWbRFFw8X4XJdvXfRhR-30" value="family&#39;s economy affects" style="ellipse;whiteSpace=wrap;html=1;fontSize=14;" vertex="1" parent="PKWbRFFw8X4XJdvXfRhR-1">
          <mxGeometry x="470" y="130" width="120" height="60" as="geometry" />
        </mxCell>
        <mxCell id="PKWbRFFw8X4XJdvXfRhR-35" value="Economy affects" style="ellipse;whiteSpace=wrap;html=1;fontSize=14;" vertex="1" parent="PKWbRFFw8X4XJdvXfRhR-1">
          <mxGeometry x="70" y="70" width="120" height="60" as="geometry" />
        </mxCell>
        <mxCell id="PKWbRFFw8X4XJdvXfRhR-45" style="edgeStyle=none;rounded=0;orthogonalLoop=1;jettySize=auto;html=1;exitX=0;exitY=0.5;exitDx=0;exitDy=0;fontSize=14;" edge="1" parent="PKWbRFFw8X4XJdvXfRhR-1" source="PKWbRFFw8X4XJdvXfRhR-41" target="PKWbRFFw8X4XJdvXfRhR-35">
          <mxGeometry relative="1" as="geometry" />
        </mxCell>
        <mxCell id="PKWbRFFw8X4XJdvXfRhR-41" value="cost for the solution" style="ellipse;whiteSpace=wrap;html=1;fontSize=14;" vertex="1" parent="PKWbRFFw8X4XJdvXfRhR-1">
          <mxGeometry x="190" y="130" width="120" height="60" as="geometry" />
        </mxCell>
        <mxCell id="PKWbRFFw8X4XJdvXfRhR-46" value="happiness of a family" style="ellipse;whiteSpace=wrap;html=1;fontSize=14;" vertex="1" parent="PKWbRFFw8X4XJdvXfRhR-1">
          <mxGeometry x="561" y="50" width="120" height="60" as="geometry" />
        </mxCell>
      </root>
    </mxGraphModel>
  </diagram>
  <diagram name="G214E2" id="ECoa4Qz6mo3MioKO2-79">
    <mxGraphModel dx="1422" dy="1909" grid="1" gridSize="10" guides="1" tooltips="1" connect="1" arrows="1" fold="1" page="1" pageScale="1" pageWidth="827" pageHeight="1169" math="0" shadow="0">
      <root>
        <mxCell id="YMf98mhLNNqkbu4_2yhu-0" />
        <mxCell id="YMf98mhLNNqkbu4_2yhu-1" parent="YMf98mhLNNqkbu4_2yhu-0" />
        <mxCell id="YMf98mhLNNqkbu4_2yhu-53" style="edgeStyle=none;rounded=0;orthogonalLoop=1;jettySize=auto;html=1;exitX=0;exitY=0.5;exitDx=0;exitDy=0;entryX=1;entryY=0.5;entryDx=0;entryDy=0;fontSize=16;strokeWidth=1;" parent="YMf98mhLNNqkbu4_2yhu-1" source="YMf98mhLNNqkbu4_2yhu-8" target="YMf98mhLNNqkbu4_2yhu-47" edge="1">
          <mxGeometry relative="1" as="geometry" />
        </mxCell>
        <mxCell id="YMf98mhLNNqkbu4_2yhu-54" style="edgeStyle=none;rounded=0;orthogonalLoop=1;jettySize=auto;html=1;exitX=1;exitY=1;exitDx=0;exitDy=0;entryX=0;entryY=0;entryDx=0;entryDy=0;fontSize=16;strokeWidth=1;" parent="YMf98mhLNNqkbu4_2yhu-1" source="YMf98mhLNNqkbu4_2yhu-8" target="YMf98mhLNNqkbu4_2yhu-62" edge="1">
          <mxGeometry relative="1" as="geometry">
            <mxPoint x="653.4314575050762" y="180.25126265847075" as="targetPoint" />
          </mxGeometry>
        </mxCell>
        <mxCell id="YMf98mhLNNqkbu4_2yhu-56" style="edgeStyle=none;rounded=0;orthogonalLoop=1;jettySize=auto;html=1;exitX=1;exitY=0;exitDx=0;exitDy=0;entryX=0;entryY=1;entryDx=0;entryDy=0;fontSize=16;strokeWidth=1;" parent="YMf98mhLNNqkbu4_2yhu-1" source="YMf98mhLNNqkbu4_2yhu-8" target="YMf98mhLNNqkbu4_2yhu-44" edge="1">
          <mxGeometry relative="1" as="geometry" />
        </mxCell>
        <mxCell id="YMf98mhLNNqkbu4_2yhu-58" style="edgeStyle=none;rounded=0;orthogonalLoop=1;jettySize=auto;html=1;exitX=0.5;exitY=0;exitDx=0;exitDy=0;entryX=0.5;entryY=1;entryDx=0;entryDy=0;fontSize=16;strokeWidth=1;" parent="YMf98mhLNNqkbu4_2yhu-1" source="YMf98mhLNNqkbu4_2yhu-8" target="YMf98mhLNNqkbu4_2yhu-43" edge="1">
          <mxGeometry relative="1" as="geometry" />
        </mxCell>
        <mxCell id="YMf98mhLNNqkbu4_2yhu-70" style="edgeStyle=none;rounded=0;orthogonalLoop=1;jettySize=auto;html=1;exitX=0;exitY=0;exitDx=0;exitDy=0;entryX=1;entryY=1;entryDx=0;entryDy=0;fontSize=16;strokeWidth=1;" parent="YMf98mhLNNqkbu4_2yhu-1" source="YMf98mhLNNqkbu4_2yhu-8" target="YMf98mhLNNqkbu4_2yhu-40" edge="1">
          <mxGeometry relative="1" as="geometry" />
        </mxCell>
        <mxCell id="YMf98mhLNNqkbu4_2yhu-73" style="edgeStyle=none;rounded=0;orthogonalLoop=1;jettySize=auto;html=1;exitX=0;exitY=1;exitDx=0;exitDy=0;entryX=1;entryY=0;entryDx=0;entryDy=0;fontSize=16;strokeWidth=1;" parent="YMf98mhLNNqkbu4_2yhu-1" source="YMf98mhLNNqkbu4_2yhu-8" target="YMf98mhLNNqkbu4_2yhu-72" edge="1">
          <mxGeometry relative="1" as="geometry" />
        </mxCell>
        <mxCell id="YMf98mhLNNqkbu4_2yhu-77" style="edgeStyle=none;rounded=0;orthogonalLoop=1;jettySize=auto;html=1;exitX=1;exitY=0.5;exitDx=0;exitDy=0;fontSize=16;strokeWidth=1;" parent="YMf98mhLNNqkbu4_2yhu-1" source="YMf98mhLNNqkbu4_2yhu-8" target="YMf98mhLNNqkbu4_2yhu-63" edge="1">
          <mxGeometry relative="1" as="geometry" />
        </mxCell>
        <mxCell id="YMf98mhLNNqkbu4_2yhu-82" style="edgeStyle=none;rounded=0;orthogonalLoop=1;jettySize=auto;html=1;exitX=0.28;exitY=0.06;exitDx=0;exitDy=0;entryX=1;entryY=1;entryDx=0;entryDy=0;fontSize=16;strokeWidth=1;exitPerimeter=0;" parent="YMf98mhLNNqkbu4_2yhu-1" source="YMf98mhLNNqkbu4_2yhu-8" target="YMf98mhLNNqkbu4_2yhu-78" edge="1">
          <mxGeometry relative="1" as="geometry" />
        </mxCell>
        <mxCell id="5uh6u1bOTckbsdyCAjUR-1" style="edgeStyle=none;rounded=0;orthogonalLoop=1;jettySize=auto;html=1;exitX=0.5;exitY=1;exitDx=0;exitDy=0;entryX=0.5;entryY=0;entryDx=0;entryDy=0;fontSize=16;strokeWidth=1;" edge="1" parent="YMf98mhLNNqkbu4_2yhu-1" source="YMf98mhLNNqkbu4_2yhu-8" target="5uh6u1bOTckbsdyCAjUR-0">
          <mxGeometry relative="1" as="geometry" />
        </mxCell>
        <mxCell id="5uh6u1bOTckbsdyCAjUR-4" style="edgeStyle=none;rounded=0;orthogonalLoop=1;jettySize=auto;html=1;exitX=0.5;exitY=1;exitDx=0;exitDy=0;entryX=0.5;entryY=0;entryDx=0;entryDy=0;fontSize=16;strokeWidth=1;" edge="1" parent="YMf98mhLNNqkbu4_2yhu-1" source="YMf98mhLNNqkbu4_2yhu-8" target="5uh6u1bOTckbsdyCAjUR-3">
          <mxGeometry relative="1" as="geometry" />
        </mxCell>
        <mxCell id="YMf98mhLNNqkbu4_2yhu-8" value="Unbalanced SRB in Vietnam" style="ellipse;whiteSpace=wrap;html=1;fillColor=#dae8fc;strokeColor=#6c8ebf;fontStyle=1;fontSize=16;strokeWidth=1;" parent="YMf98mhLNNqkbu4_2yhu-1" vertex="1">
          <mxGeometry x="280" y="90" width="211" height="50" as="geometry" />
        </mxCell>
        <mxCell id="YMf98mhLNNqkbu4_2yhu-71" style="edgeStyle=none;rounded=0;orthogonalLoop=1;jettySize=auto;html=1;exitX=1;exitY=0;exitDx=0;exitDy=0;entryX=0;entryY=0.5;entryDx=0;entryDy=0;fontSize=16;strokeWidth=1;" parent="YMf98mhLNNqkbu4_2yhu-1" source="YMf98mhLNNqkbu4_2yhu-40" target="YMf98mhLNNqkbu4_2yhu-66" edge="1">
          <mxGeometry relative="1" as="geometry" />
        </mxCell>
        <mxCell id="YMf98mhLNNqkbu4_2yhu-40" value="social security system not fully develop" style="ellipse;whiteSpace=wrap;html=1;fontSize=16;strokeWidth=1;" parent="YMf98mhLNNqkbu4_2yhu-1" vertex="1">
          <mxGeometry x="80" width="170" height="80" as="geometry" />
        </mxCell>
        <mxCell id="YMf98mhLNNqkbu4_2yhu-59" style="edgeStyle=none;rounded=0;orthogonalLoop=1;jettySize=auto;html=1;exitX=1;exitY=0.5;exitDx=0;exitDy=0;fontSize=16;strokeWidth=1;" parent="YMf98mhLNNqkbu4_2yhu-1" source="YMf98mhLNNqkbu4_2yhu-43" target="YMf98mhLNNqkbu4_2yhu-44" edge="1">
          <mxGeometry relative="1" as="geometry" />
        </mxCell>
        <mxCell id="YMf98mhLNNqkbu4_2yhu-67" style="edgeStyle=none;rounded=0;orthogonalLoop=1;jettySize=auto;html=1;exitX=1;exitY=0;exitDx=0;exitDy=0;entryX=0;entryY=1;entryDx=0;entryDy=0;fontSize=16;strokeWidth=1;" parent="YMf98mhLNNqkbu4_2yhu-1" source="YMf98mhLNNqkbu4_2yhu-43" target="YMf98mhLNNqkbu4_2yhu-66" edge="1">
          <mxGeometry relative="1" as="geometry" />
        </mxCell>
        <mxCell id="YMf98mhLNNqkbu4_2yhu-43" value="women will stay at her husband&#39;s home after marrided" style="ellipse;whiteSpace=wrap;html=1;fontSize=16;strokeWidth=1;" parent="YMf98mhLNNqkbu4_2yhu-1" vertex="1">
          <mxGeometry x="300" y="-30" width="180" height="90" as="geometry" />
        </mxCell>
        <mxCell id="YMf98mhLNNqkbu4_2yhu-44" value="male chauvinism" style="ellipse;whiteSpace=wrap;html=1;fontSize=16;strokeWidth=1;" parent="YMf98mhLNNqkbu4_2yhu-1" vertex="1">
          <mxGeometry x="560" y="-20" width="160" height="70" as="geometry" />
        </mxCell>
        <mxCell id="YMf98mhLNNqkbu4_2yhu-47" value="Abuse of medical advances" style="ellipse;whiteSpace=wrap;html=1;fontSize=16;strokeWidth=1;" parent="YMf98mhLNNqkbu4_2yhu-1" vertex="1">
          <mxGeometry x="50" y="90" width="160" height="70" as="geometry" />
        </mxCell>
        <mxCell id="YMf98mhLNNqkbu4_2yhu-69" style="edgeStyle=none;rounded=0;orthogonalLoop=1;jettySize=auto;html=1;entryX=0;entryY=1;entryDx=0;entryDy=0;fontSize=16;strokeWidth=1;" parent="YMf98mhLNNqkbu4_2yhu-1" source="YMf98mhLNNqkbu4_2yhu-62" target="YMf98mhLNNqkbu4_2yhu-63" edge="1">
          <mxGeometry relative="1" as="geometry" />
        </mxCell>
        <mxCell id="YMf98mhLNNqkbu4_2yhu-62" value="need people to do heavy jobs" style="ellipse;whiteSpace=wrap;html=1;fontSize=16;strokeWidth=1;" parent="YMf98mhLNNqkbu4_2yhu-1" vertex="1">
          <mxGeometry x="460" y="140" width="170" height="70" as="geometry" />
        </mxCell>
        <mxCell id="YMf98mhLNNqkbu4_2yhu-65" style="edgeStyle=none;rounded=0;orthogonalLoop=1;jettySize=auto;html=1;exitX=0.5;exitY=0;exitDx=0;exitDy=0;entryX=0.5;entryY=1;entryDx=0;entryDy=0;fontSize=16;strokeWidth=1;" parent="YMf98mhLNNqkbu4_2yhu-1" source="YMf98mhLNNqkbu4_2yhu-63" target="YMf98mhLNNqkbu4_2yhu-44" edge="1">
          <mxGeometry relative="1" as="geometry" />
        </mxCell>
        <mxCell id="YMf98mhLNNqkbu4_2yhu-63" value="men to be seen as the primary breadwinners" style="ellipse;whiteSpace=wrap;html=1;fontSize=16;strokeWidth=1;" parent="YMf98mhLNNqkbu4_2yhu-1" vertex="1">
          <mxGeometry x="630" y="80" width="160" height="80" as="geometry" />
        </mxCell>
        <mxCell id="YMf98mhLNNqkbu4_2yhu-68" style="edgeStyle=none;rounded=0;orthogonalLoop=1;jettySize=auto;html=1;exitX=0.5;exitY=1;exitDx=0;exitDy=0;entryX=0.5;entryY=0;entryDx=0;entryDy=0;fontSize=16;strokeWidth=1;" parent="YMf98mhLNNqkbu4_2yhu-1" source="YMf98mhLNNqkbu4_2yhu-66" target="YMf98mhLNNqkbu4_2yhu-44" edge="1">
          <mxGeometry relative="1" as="geometry" />
        </mxCell>
        <mxCell id="YMf98mhLNNqkbu4_2yhu-66" value="Old people need their children taking care" style="ellipse;whiteSpace=wrap;html=1;fontSize=16;strokeWidth=1;" parent="YMf98mhLNNqkbu4_2yhu-1" vertex="1">
          <mxGeometry x="470" y="-120" width="170" height="80" as="geometry" />
        </mxCell>
        <mxCell id="YMf98mhLNNqkbu4_2yhu-74" style="edgeStyle=none;rounded=0;orthogonalLoop=1;jettySize=auto;html=1;exitX=1;exitY=0.5;exitDx=0;exitDy=0;entryX=0.5;entryY=1;entryDx=0;entryDy=0;fontSize=16;strokeWidth=1;" parent="YMf98mhLNNqkbu4_2yhu-1" source="YMf98mhLNNqkbu4_2yhu-72" target="YMf98mhLNNqkbu4_2yhu-44" edge="1">
          <mxGeometry relative="1" as="geometry" />
        </mxCell>
        <mxCell id="YMf98mhLNNqkbu4_2yhu-72" value="lack of gender inequality policies" style="ellipse;whiteSpace=wrap;html=1;fontSize=16;strokeWidth=1;" parent="YMf98mhLNNqkbu4_2yhu-1" vertex="1">
          <mxGeometry x="130" y="180" width="170" height="70" as="geometry" />
        </mxCell>
        <mxCell id="5uh6u1bOTckbsdyCAjUR-10" style="edgeStyle=none;rounded=0;orthogonalLoop=1;jettySize=auto;html=1;exitX=0.5;exitY=0;exitDx=0;exitDy=0;entryX=0.656;entryY=0.98;entryDx=0;entryDy=0;entryPerimeter=0;fontSize=16;strokeWidth=1;" edge="1" parent="YMf98mhLNNqkbu4_2yhu-1" source="YMf98mhLNNqkbu4_2yhu-75" target="5uh6u1bOTckbsdyCAjUR-9">
          <mxGeometry relative="1" as="geometry" />
        </mxCell>
        <mxCell id="YMf98mhLNNqkbu4_2yhu-75" value="lake of knowledge" style="ellipse;whiteSpace=wrap;html=1;fontSize=16;strokeWidth=1;" parent="YMf98mhLNNqkbu4_2yhu-1" vertex="1">
          <mxGeometry x="650" y="270" width="160" height="70" as="geometry" />
        </mxCell>
        <mxCell id="YMf98mhLNNqkbu4_2yhu-80" style="edgeStyle=none;rounded=0;orthogonalLoop=1;jettySize=auto;html=1;exitX=1;exitY=0;exitDx=0;exitDy=0;fontSize=16;strokeWidth=1;" parent="YMf98mhLNNqkbu4_2yhu-1" source="YMf98mhLNNqkbu4_2yhu-78" target="YMf98mhLNNqkbu4_2yhu-79" edge="1">
          <mxGeometry relative="1" as="geometry" />
        </mxCell>
        <mxCell id="YMf98mhLNNqkbu4_2yhu-78" value="the child&#39;s last name from his father&#39;s last name" style="ellipse;whiteSpace=wrap;html=1;fontSize=16;strokeWidth=1;" parent="YMf98mhLNNqkbu4_2yhu-1" vertex="1">
          <mxGeometry x="50" y="-110" width="180" height="80" as="geometry" />
        </mxCell>
        <mxCell id="YMf98mhLNNqkbu4_2yhu-79" value="Carry on the family lineage" style="ellipse;whiteSpace=wrap;html=1;fontSize=16;strokeWidth=1;" parent="YMf98mhLNNqkbu4_2yhu-1" vertex="1">
          <mxGeometry x="290" y="-150" width="160" height="70" as="geometry" />
        </mxCell>
        <mxCell id="5uh6u1bOTckbsdyCAjUR-2" style="edgeStyle=none;rounded=0;orthogonalLoop=1;jettySize=auto;html=1;exitX=1;exitY=0.5;exitDx=0;exitDy=0;entryX=0;entryY=0.5;entryDx=0;entryDy=0;fontSize=16;strokeWidth=1;" edge="1" parent="YMf98mhLNNqkbu4_2yhu-1" source="5uh6u1bOTckbsdyCAjUR-0" target="YMf98mhLNNqkbu4_2yhu-75">
          <mxGeometry relative="1" as="geometry">
            <Array as="points" />
          </mxGeometry>
        </mxCell>
        <mxCell id="5uh6u1bOTckbsdyCAjUR-0" value="lower levels of educational" style="ellipse;whiteSpace=wrap;html=1;fontSize=16;strokeWidth=1;" vertex="1" parent="YMf98mhLNNqkbu4_2yhu-1">
          <mxGeometry x="465" y="250" width="160" height="70" as="geometry" />
        </mxCell>
        <mxCell id="5uh6u1bOTckbsdyCAjUR-5" style="edgeStyle=none;rounded=0;orthogonalLoop=1;jettySize=auto;html=1;exitX=1;exitY=0.5;exitDx=0;exitDy=0;fontSize=16;strokeWidth=1;" edge="1" parent="YMf98mhLNNqkbu4_2yhu-1" source="5uh6u1bOTckbsdyCAjUR-3" target="5uh6u1bOTckbsdyCAjUR-0">
          <mxGeometry relative="1" as="geometry" />
        </mxCell>
        <mxCell id="5uh6u1bOTckbsdyCAjUR-3" value="poverty" style="ellipse;whiteSpace=wrap;html=1;fontSize=16;strokeWidth=1;" vertex="1" parent="YMf98mhLNNqkbu4_2yhu-1">
          <mxGeometry x="340" y="210" width="110" height="50" as="geometry" />
        </mxCell>
        <mxCell id="5uh6u1bOTckbsdyCAjUR-11" style="edgeStyle=none;rounded=0;orthogonalLoop=1;jettySize=auto;html=1;exitX=0.5;exitY=0;exitDx=0;exitDy=0;entryX=0.5;entryY=1;entryDx=0;entryDy=0;fontSize=16;strokeWidth=1;" edge="1" parent="YMf98mhLNNqkbu4_2yhu-1" source="5uh6u1bOTckbsdyCAjUR-9" target="YMf98mhLNNqkbu4_2yhu-63">
          <mxGeometry relative="1" as="geometry" />
        </mxCell>
        <mxCell id="5uh6u1bOTckbsdyCAjUR-9" value="physical work" style="ellipse;whiteSpace=wrap;html=1;fontSize=16;strokeWidth=1;" vertex="1" parent="YMf98mhLNNqkbu4_2yhu-1">
          <mxGeometry x="630" y="190" width="160" height="50" as="geometry" />
        </mxCell>
      </root>
    </mxGraphModel>
  </diagram>
</mxfile>
